<?xml version="1.0" encoding="UTF-8"?>
<svg id="Layer_1" xmlns="http://www.w3.org/2000/svg" viewBox="0 0 1000 1000">
  <defs>
    <style>
      .cls-1 {
        fill: #fff;
      }

      .cls-2 {
        fill: #e8423a;
      }
    </style>
  </defs>
  <rect class="cls-1" width="1000" height="1000"/>
  <g>
    <g>
      <path d="M203.24,494.48c10.32-36.48,23.76-71.72,40.52-105.73,22.31-45.27,50.29-86.59,84.73-123.52,15.53-16.65,32.05-32.24,49.68-46.66,19.05-15.58,39.16-29.66,60.37-42.14,18.03-10.61,36.9-19.56,56.21-27.59,16.21-6.74,30.8-16.21,44.96-26.47,12.02-8.71,24.18-17.21,38.31-22.31,8.54-3.08,17.3-5.08,26.41-4.17,7.26.73,13.93,3.46,19.41,8.32,7.76,6.88,8.46,19.33,1.97,29.2-1.07,1.62-2.13,3.32-3.52,4.66-2.6,2.51-2.63,5.33-1.89,8.55,2.04,8.85,6.44,15.87,15.15,19.38,4.67,1.88,9.63,3.07,14.3.16,1.4-.87,2.47-2.81,2.97-4.48,3.31-11.06,9.92-19.82,18.41-27.4,6.43-5.74,14.06-8.46,22.48-8.94,8.04-.47,13.73,3.93,18.36,9.92,6.31,8.16,10.19,17.59,13.56,27.21,7.74,22.07,14.81,44.35,20.19,67.14,6.93,29.36,11.19,59.11,13.36,89.17,1.9,26.27,2.04,52.55.14,78.82-1.53,21.18-4.23,42.18-8.31,63.06-4.04,20.67-8.92,41.08-15.23,61.15-9.08,28.87-20.21,56.91-33.71,84.03-16.25,32.63-35.52,63.35-57.39,92.47-19.03,25.35-40,48.92-64.05,69.65-21.73,18.73-45.26,34.51-72.41,44.42-18.66,6.81-37.9,11.36-57.31,15.36-23.52,4.86-47.17,9.3-70.43,15.18-14,3.54-27.37,9.53-41.04,14.36-13.91,4.91-27.92,9.51-42.9,9.48-10.13-.02-19.88-1.91-28.15-8.27-5.55-4.26-7.8-10-7.31-17.1.43-6.18-2.05-11.76-5.44-16.78-1.97-2.91-4.38-2.82-6.3-.05-8.52,12.22-32.8,13.81-41.75-3.85-4.2-8.29-5.69-17.01-4.6-26.15.64-5.37,1.21-10.82,2.64-16.01,3.91-14.2,1.7-27.78-3.79-40.95-14.86-35.64-19.59-72.93-19-111.21.5-32.08,4.8-63.68,11.41-94.99,2.62-12.4,5.96-24.64,8.98-36.95ZM591.05,261.67c.34,0,.69.01,1.03.02.26-.46.65-.88.77-1.37,3.12-11.93,6.7-23.77,9.18-35.83,3.88-18.88,2.43-37.9.21-56.89-1.17-10-.49-19.93,3.51-29.37.75-1.77,1.88-3.37,2.84-5.05.32.13.65.25.97.38-.96,7.13-1.93,14.25-2.89,21.38,3.48-4.76,6.29-9.55,9.1-14.36,2.84-4.85,5.88-9.61,8.41-14.62,1.07-2.12,1.44-4.8,1.43-7.22-.04-9.54-10.97-19.09-21.54-19.07-7.5.02-14.54,2.1-21.39,4.92-12.31,5.07-23.39,12.27-34.13,19.99-15.33,11.01-31.12,21.2-48.05,29.6-15.03,7.46-30.25,14.61-44.91,22.74-23.75,13.18-45.24,29.66-65.96,47.16-24.98,21.1-47.19,44.87-67.64,70.32-20.11,25.03-38.11,51.49-53.4,79.72-7.78,14.36-15.13,28.99-21.81,43.89-9.71,21.65-17.71,43.99-24.7,66.69-6.9,22.4-12.67,45.07-16.9,68.11-4.79,26.13-7.61,52.48-7.76,79.09-.19,33.83,3.32,66.97,16.48,98.61,3.05,7.34,5.19,15.2,6.7,23.02,2.39,12.34-.43,24.53-2.28,36.74-.96,6.34-1.3,12.98-.54,19.32,1.1,9.14,7.88,12.87,16.78,10.44,1.94-.53,2.72-1.19,2.58-3.51-.62-9.74,5.7-16.67,15.53-16.89,3.85-.09,7.72.78,11.57,1.24,4.89.58,7.45-1.08,8.44-5.86.48-2.32.52-4.73.73-7.1.69-8.03.79-16.2,4.67-23.54,1.9-3.59,3.91-7.64,8.25-8.63,4.58-1.05,9.37-1.28,14.08-1.71,1.81-.16,3.67.26,5.5.17,5.66-.27,10.58-3.88,11.96-8.95,1.42-5.21-.87-8.74-5.44-11.19-.67-.36-1.44-1.74-1.24-2.32.91-2.62,1.78-5.39,3.36-7.6,2.45-3.43,5.47-6.46,8.14-9.53.17.02-.23-.01-.62-.06-7.81-.87-12.45,6.39-19.5,7.7-1.38.26-2.27,3.18-3.37,4.89-.22.35-.36.75-.54,1.12-.19-.3-.39-.6-.58-.9,1.32-2.53,2.56-5.12,3.99-7.58,1.33-2.29,2.47-4.91,4.39-6.58,4.62-4.02,10.32-5.07,16.38-4.98,6.46.1,12.97.19,19.38-.45,4.26-.43,7.38-3.24,8.59-7.34-5.31.66-10.5,1.78-15.71,1.83-7.06.06-13.47-2.15-17.8-8.3-.59-.84-.75-2-1.11-3,1.3-.19,1.86-.08,2.23.24,10.2,9,26.59,6.04,35.69-2.52,4.8-4.51,9.87-7.54,16.25-8.65,1.37-.24,2.7-.79,4.03-1.26,3-1.09,4.92-3.13,6.38-6.05,2.09-4.19,5.15-7.23,10.47-7.35,3.4-.07,6.91-.68,10.13-1.76,1.68-.57,3.89-2.58,4.03-4.12.42-4.33-.12-8.75-.25-13.14-.08-2.46-.6-5.04-.07-7.37,2.38-10.36,12.97-16.74,23.49-14.15,2.41.59,3.46-.01,4.1-2.1.86-2.78,2.04-5.52,2.46-8.37.98-6.63,1.31-13.37,2.4-19.98,1.47-8.88,9.58-17.17,17.7-15.74,9.39,1.66,17.56-8.72,17.44-15.8-.07-4.11-.16-8.22-.1-12.33.11-6.86,2.45-12.66,8.93-15.77,3.27-1.57,6.89-2.48,10.43-3.38,3.04-.77,6.21-.97,9.28-1.65,8.23-1.82,11.58-5.88,11.63-14.36.03-4.75-.54-9.51-.52-14.26.04-8.77,4.14-18.34,16.08-19.9,1.07-.14,2.12-.46,3.17-.71,7.51-1.82,8.76-3.47,8.37-11.17-.06-1.3-.31-2.59-.3-3.88.03-3.35-.19-6.75.31-10.03,1.13-7.43,5.9-11.64,13.32-12.31,2.05-.19,4.1-.33,6.14-.58,6.03-.75,8.85-3.7,9.13-9.8.2-4.32.03-8.65.26-12.97.3-5.49.48-11.03,1.37-16.44,1.53-9.25,7.38-15.03,15.93-18.51,7.24-2.94,9.73-7.21,9.13-15-.31-3.99-1.14-7.94-1.39-11.93-.4-6.5,1.68-12.2,7.43-15.58,6.74-3.97,9.65-10.04,10.73-17.27,1.34-9.04,4.28-17.19,11.34-23.45.56-.5.85-2.01.53-2.69-4.38-9.15-3.02-17.47,3.46-25.05,2.02-2.37,2.87-4.73,2.21-7.95-.44-2.12.41-4.48.49-6.74.14-3.93.4-7.88.12-11.78-.54-7.49-5.08-13.18-9.16-19.03-2.83-4.06-5.75-8.07-8.4-12.26-1.09-1.71-1.55-3.82-2.56-6.43-.78,6.79-1.4,12.81-2.18,18.81-2.18,16.83-5.42,33.36-13.76,48.46-.59,1.06-.67,2.48-.71,3.74-.24,7.13-.08,14.29-.66,21.39-.86,10.41-2.53,20.76-8.67,29.59-3.57,5.13-8.06,9.43-13.94,10.35-1.11,6.88-1.8,13.67-3.45,20.22-.76,3.02-3.09,5.86-5.28,8.24-1.2,1.3-1.72,2.09-1.31,3.78,1.25,5.16.97,10.25-.91,15.26-3.09,8.21-7.2,11.07-15.74,10.86-6.87-.17-9.61,3.83-7.93,10.53,1.17,4.65,1.96,9.55,1.87,14.32-.18,9.15-8.1,15.76-16.98,14.89-11.13-1.1-14.68,3.27-11.81,14.24.84,3.22,1.53,6.57,1.63,9.88.19,6.35-2.81,10.51-8.23,11.59-2.49.5-5.15.25-7.73.2-5.05-.1-6.34.94-6.57,6.1-.14,3.23-.07,6.49.26,9.7,1.17,11.35-9.86,26.33-25.56,22.79-3.1-.7-3.64.91-3.87,3.11-.15,1.49.3,3.05.11,4.53-.54,4.37-.64,8.93-2.04,13.04-2.32,6.82-8.15,9.7-14.99,10.82,0,.8-.01,1.44.03,2.08.55,8.1-5.49,17.9-15.5,17.62-.74-.02-1.97,1.17-2.2,2-2.46,9.03-8.85,13.61-17.54,15.3-3.11.61-4.78,1.92-5.36,5.01-1.59,8.56-7.13,13.38-15.05,16.29-5.39,1.98-9.74,5.64-10.63,11.68-.5,3.4-1.92,5.83-4.72,7.24-3.54,1.78-7.33,3.07-11.02,4.53-.86.34-1.78.49-2.9.79,1.94,4.39.08,7.6-2.31,10.69-3.25,4.21-7.87,4.81-12.73,5.3-8.03.81-9.55,3.25-8.25,11.16.48,2.92.97,6.31-.03,8.92-2.93,7.67-8.38,13.3-16.72,14.85-4.19.78-5.93,3.14-6.81,6.7-.46,1.87-.7,3.84-.71,5.77-.04,6.39-2.68,11.57-8.63,13.62-5.3,1.82-6.36,5.41-6.89,10-.21,1.81-1.08,3.56-1.17,5.37-.19,3.6-2.28,5.87-4.7,8.16-6.05,5.74-14.09,7.76-21.11,11.68-10.33,5.77-19.4,12.88-20.92,25.93-.04.35-.38.66-.77,1.31-2.46-2.52-1.9-5.27-1.24-7.74,2.6-9.74,9.42-16.2,17.74-21.02,5.58-3.23,11.8-5.33,17.52-8.34,4.95-2.61,9.28-6.13,10.7-11.96.78-3.22,1.18-6.52,1.71-9.53-5.07.04-10.26.49-15.36.01-7.68-.72-12.57-3.26-13.72-6.69,1.83.51,3.36.93,4.88,1.37,9.13,2.6,18.17,2.58,27.12-.82,5.7-2.16,9.52-5.85,10.38-12.16.46-3.4,1.09-6.77,1.66-10.21-3.1-.5-6.1-.85-9.04-1.49-2.86-.61-5.68-1.43-8.46-2.31-2.75-.87-5.43-1.92-8.14-2.9.09-.28.19-.56.28-.84,2.11.25,4.22.51,6.33.76,10.28,1.19,20.52,1.53,30.47-1.99,4.5-1.59,8.27-4.2,10.35-8.79,1.93-4.26,1.68-8.62.96-13.05-.77-4.74.22-7.48,3.66-9.16,2.01-.98,4.28-1.47,6.47-2.04,3.03-.79,6.18-1.2,9.14-2.2,4.18-1.42,6.04-4.62,5.28-8.28-19.75,1.4-34.52-.13-39.09-4.26.87,0,1.48-.04,2.09,0,7.56.5,15.11,1.23,22.68,1.45,8.03.23,16.01-.3,23.66-3.23,3.58-1.37,6-3.77,7.46-7.23,1.35-3.2,2.68-6.42,4.03-9.68-3.06-.17-6.4-.25-9.71-.57-3.31-.33-6.59-.91-9.89-1.38.9-.63,1.74-.62,2.57-.65,6.91-.25,13.93.19,20.7-.92,12.07-1.98,15.59-6.47,18.96-17.78-13.01-.45-25.63-2.63-37.57-7.88,3.16.23,6.22.91,9.3,1.47,8.74,1.6,17.49,3.15,26.44,2.15,10.3-1.14,18.33-5.91,24.28-15.01-5.48-1.25-10.61-2.42-15.74-3.59.05-.34.1-.68.15-1.02,3.51.15,7.11-.11,10.52.54,6.07,1.15,11.34-.37,16.25-3.73,3.2-2.18,5.2-5.19,5.64-9.09.22-1.97-.11-3.42-2.53-4.08-3.65-.99-7.2-2.38-10.73-3.77-4.24-1.67-8.41-3.51-12.61-5.28.08-.28.15-.55.23-.83,2.34.21,4.71.25,7.02.65,6.3,1.07,12.55,2.4,18.86,3.43,8.57,1.41,15.31-3.75,16.36-12.39.69-5.68,1.33-11.37,1.94-17.07.1-.95-.06-1.94-.09-2.9-1.02.39-2.22.57-3.03,1.23-1.42,1.17-2.6,2.64-4.06,4.17-.97-3.11.98-6.31,4.31-7.94,4.36-2.13,7.58-2.14,9.19.09-1.73.38-3.42.76-5.77,1.28,2.48.52,4.15.78,5.76,1.23,10.02,2.81,18.84-2.28,21.55-12.32.88-3.26.09-6.13-1-9.15-2.92-8.06-.2-14.2,7.06-15.94,1.85-.45,3.87-.33,5.8-.26,5.39.2,8.18-1.7,9.42-6.86.48-1.98.63-4.06.81-6.1.34-4.08.61-8.16.87-12.25.03-.5-.18-1.01-.18-1.51-.01-1.82-.48-3.83.13-5.43,1.64-4.31,6.99-6.7,9.84-5.04-2.12,1.82-4.32,3.72-7.07,6.1,3.33-.46,5.58-1.15,7.77-1,7.21.48,11.17-3.1,12.29-9.89,1.16-7.04.52-14.38.63-21.59,0-.38-.36-.77-.53-1.16-1.96-4.68-4.15-9.28-5.79-14.07-1.54-4.49-1.94-9.2-.79-14.78,2.13,8.27,4.49,15.57,9.15,22.46,1.88-3.9,4.8-4.51,8.34-4.44,12.8.22,16-9.12,13.68-19.62-1.61-7.25-5.64-13.96-8.59-20.91-.29-.67-.55-1.35-.82-2.03.21-.1.42-.2.63-.29,3.85,4.75,7.7,9.49,11.56,14.24,3.43-3.34,5.65-7.71,6.76-13.41,1.89-9.73-.97-18.68-4.73-27.41-2.5-5.8-5.35-11.44-8.05-17.16,7.97,8.2,14.15,17.5,18.17,29.18,1.8-2.02,3.83-3.26,4.24-4.91,2.3-9.3,3.2-18.78,2.13-28.36-1.3-11.62-2.73-23.22-4.05-34.84-.19-1.7-.08-3.43-.11-5.14.4-.05.79-.1,1.19-.15,3.43,16.91,6.86,33.82,10.28,50.73.3.06.6.12.89.17,1.03-5.68,2.34-11.33,3.02-17.06,1.46-12.24-.16-24.41-1.26-36.58-.99-10.96-.99-21.87,2.66-32.45.59-1.71,1.37-3.35,2.08-5.08.64,13.54,1.26,26.73,1.87,39.92ZM313.21,792.34c-.26-.1-.51-.2-.77-.29-.22.21-.52.38-.64.63-6.55,14-16.3,24.85-30.56,31.37-4.25,1.95-6.98,5.36-8.34,9.86-.84,2.8-1.61,5.64-2.69,8.35-2.06,5.19-1.37,8.38,3.2,11.74,8.18,6.01,17.6,6.87,27.27,5.91,13.5-1.34,26.02-6.31,38.73-10.66,15.76-5.39,31.45-11.31,47.6-15.19,20.7-4.98,41.85-8.06,62.78-12.12,20.41-3.96,40.64-8.56,59.86-16.81,31.4-13.48,58.22-33.55,82.63-57.11,18.49-17.85,35.09-37.37,50.45-57.94,4.85-6.5,9.74-13.01,14.07-19.86,5.14-8.13,9.61-16.67,14.56-24.91.95-1.58,3.3-2.35,4.18-3.95,8.05-14.55,16.25-29.04,23.76-43.87,13.24-26.14,23.82-53.41,32.24-81.47,11.97-39.88,19.32-80.62,22.3-122.18,3.56-49.66.2-98.84-9.63-147.6-6.07-30.1-14.68-59.48-25.91-88.05-2.67-6.8-6.07-13.43-9.95-19.62-3.68-5.86-9.27-9.85-16.62-9.83-10.72.02-18.7,5.56-24.88,13.75-9.13,12.1-12.18,26.48-13.92,41.05-2.05,17.17-2.31,34.55-6.02,51.54-.02.08.24.22.4.36,1.56-2.44,3.12-4.87,4.68-7.3.8.75.92,1.15.9,1.54-.21,4.9-2.87,8.7-5.43,12.63-4.24,6.49-8.22,13.14-12.27,19.75-.29.47-.22,1.16-.42,2.37,4.69-3.28,8.34-7.32,14.59-8.15-1.43,1.98-2.44,3.45-3.51,4.88-5.6,7.42-11.37,14.71-16.75,22.27-2.81,3.95-1.81,8.16.62,12.17,4.31-2.64,8.41-5.22,12.61-7.65.74-.43,1.87-.17,2.82-.23-.2,1.02-.05,2.38-.66,3.01-3.23,3.34-6.72,6.44-10,9.74-5.11,5.11-10.6,10-13.55,16.78-1.32,3.03-1.78,6.44-2.64,9.67.41.35.83.7,1.24,1.05,3.96-1.58,7.93-3.16,12.19-4.86-1.33,2.17-2.46,4.04-3.6,5.91,5.82-1.33,9.08-5.82,13.35-9.27-.94,1.86-1.88,3.72-2.82,5.58.18.13.37.26.55.39,1.98-2.19,3.97-4.39,6.37-7.04-2.31,5.68-6.15,9.19-10.85,11.7-4.57,2.44-9.39,4.44-14.06,6.71-1.44.7-3.44,1.35-4.02,2.57-2.09,4.46-6.05,6.65-9.84,9.13-5.11,3.33-7.07,7.83-5.7,13.92,1.69,7.51,3.19,15.09-.79,22.58,4.74-3.19,9.24-6.44,11.33-12.09.83,5.45-1.36,9.76-4.56,13.66-2.7,3.3-6.23,4.14-10.31,3-.52-.15-1.22,0-1.74.23-2.47,1.09-4.92,2.23-7.36,3.41-7.81,3.77-12.26,9.82-12.21,18.66.04,7.03.93,14.09.48,21.07-.61,9.28-5.41,18.44-17.98,17.93-4.83-.2-7.98,2.07-9.67,6.14-1.12,2.68-1.51,5.75-1.73,8.68-.21,2.78.44,5.61.34,8.41-.25,6.81-3.83,11.29-10.36,13.24-3.01.9-6.09,1.55-9.07,2.55-4.63,1.56-8.02,4.29-8.17,9.69-.04,1.51-.34,3.03-.26,4.53.27,5.19.87,10.36.93,15.55.11,9.08-3.97,14.48-12.7,16.86-4.06,1.11-8.24,1.83-12.39,2.51-10.68,1.76-14.45,6.26-14.4,17.17.02,3.57-.02,7.16-.43,10.69-1.26,10.99-10.6,19.52-21.51,19.87-7.63.25-11.61,3.21-13.49,10.67-.81,3.22-.8,6.64-1.25,9.95-.78,5.66-1.13,11.45-2.57,16.94-1.77,6.71-5.57,10.19-14.51,8.78-6.75-1.06-12.5,2.81-13.25,9.58-.28,2.52-.19,5.29.55,7.68,2.59,8.32.06,15.57-4.21,22.48-.97,1.57-2.77,2.62-4.19,3.91-.25-.22-.5-.44-.74-.66.2-1.11.39-2.22.54-3.04-3.56.46-7.16,1.32-10.76,1.3-5.48-.02-8.01,1.59-8.55,7.15-.52,5.4-.34,10.61.82,16.19,1.9,9.15.16,18.58-5.32,26.74-.59.87-1.92,1.24-2.91,1.85-.05-1.17-.45-2.47-.1-3.5,1.17-3.42,2.61-6.75,3.94-10.11-4.72,3.53-9.39,3.84-14.53,1.56-2.11-.94-4.06-.32-5.75,1.64-3.96,4.6-5.55,9.97-4.42,15.7,1.46,7.41,1.58,14.81,1.16,22.25-.26,4.61-1.12,9.19-1.71,13.79-.42,0-.85,0-1.27,0-.3-1.07-.7-2.13-.87-3.22-.88-5.66-1.78-11.32-2.5-17.01-.29-2.31-1.31-2.77-3.47-2.47-5.44.74-9.43,4.83-9.94,11.52-.56,7.21-.64,14.48-.64,21.72,0,6.38-1.82,12.2-4.15,17.77-.88-8.61-1.78-17.25-2.64-25.89-.32-3.19-1.03-3.77-4.07-2.81-4.1,1.3-6.64,4.2-8.29,8.11-2.35,5.54-.81,11.13-.35,16.69.4,4.96-.64,9.54-3.46,13.55-1.26,1.78-2.82,4.72-5.56,3.33-3.11-1.58-1.07-4.34-.33-6.59,1.13-3.41,2.32-6.8,3.49-10.2ZM376.83,684.78c-1.73.49-3.74,1.36-5.83,1.61-7.43.9-10.92,7.39-16.29,11.21-.39.28-.36,1.18-.48,1.81-1.59,8.34-6.1,12.85-14.52,14.47-7.67,1.48-13.66,5.89-18.9,11.29-3.57,3.67-3.29,6.37.16,10.02,2.93,3.09,3.8,6.74,2.85,10.81-2.39,10.26-10.54,14.75-21.4,14.5-12.65-.29-19.95,4.81-22.19,17.28-1.02,5.71-1.06,11.6-1.52,17.41-.7,8.84-5.67,12.96-14.46,12.17-4.08-.37-8.2-.62-12.29-.52-1.95.05-3.87,1.07-5.8,1.65.08.33.16.67.25,1,12.84,2.17,25.69,3.19,38.57.08,1.33-.32,2.73-.78,3.84-1.55,7.77-5.36,13.99-12.21,18.92-20.24,1.52-2.47,3.58-4.9,4.12-7.6.97-4.87,2.74-9.06,6.27-12.52,3.62-3.56,7.76-5.74,12.97-4.69.11-.55.16-.75.18-.95,1.06-10.91,2.82-21.32,15.81-24.62,1.87-.48,2.92-1.73,2.51-4.15-1.33-7.72.84-14.81,4.69-21.43,3.48-5.98,7.49-7.54,14.2-5.79,4.55,1.19,10.27-3.57,9.85-8.34-.38-4.27-.99-8.52-1.52-12.92ZM640.95,179.87c-.14-3.14-.82-4.79-3.4-5.86-6.13-2.55-11.86-5.85-15.6-11.68-3.29-5.13-4.55-10.9-5.13-17.57-5.47,7.17-9.85,14.19-9.58,22.96.21,6.79.78,13.62,1.85,20.32,1.07,6.68,2.58,13.35,4.62,19.8,1.51,4.8,4.4,8.91,8.24,12.57,5.98,5.71,11.67,11.88,12.99,20.68.22,1.48,1.03,2.87,1.8,4.92,1.28-3.14,2.4-5.56,3.26-8.08,4.61-13.43,5.92-27.46,6.61-41.48.18-3.7-2.21-7.55-3.57-11.27-.18-.5-1.23-.76-1.92-1-3.3-1.16-6.73-2.01-9.89-3.46-5.56-2.55-8.26-7.7-10.84-12.07,3.27,2.37,6.6,5.63,10.6,7.42,3.01,1.35,6.78,1.13,9.97,3.79Z"/>
      <path class="cls-1" d="M591.05,261.67c-.62-13.19-1.24-26.39-1.87-39.92-.71,1.72-1.49,3.37-2.08,5.08-3.65,10.59-3.65,21.49-2.66,32.45,1.1,12.18,2.73,24.35,1.26,36.58-.68,5.73-2,11.38-3.02,17.06-.3-.06-.6-.12-.89-.17-3.43-16.91-6.86-33.82-10.28-50.73-.4.05-.79.1-1.19.15.03,1.71-.08,3.45.11,5.14,1.32,11.62,2.75,23.22,4.05,34.84,1.07,9.57.17,19.05-2.13,28.36-.41,1.65-2.44,2.9-4.24,4.91-4.02-11.67-10.19-20.98-18.17-29.18,2.7,5.71,5.55,11.36,8.05,17.16,3.76,8.73,6.62,17.68,4.73,27.41-1.11,5.7-3.33,10.07-6.76,13.41-3.85-4.75-7.71-9.5-11.56-14.24-.21.1-.42.2-.63.29.27.68.54,1.36.82,2.03,2.95,6.95,6.98,13.66,8.59,20.91,2.33,10.5-.88,19.84-13.68,19.62-3.53-.06-6.45.54-8.34,4.44-4.66-6.9-7.02-14.19-9.15-22.46-1.15,5.58-.75,10.3.79,14.78,1.64,4.79,3.84,9.39,5.79,14.07.17.4.53.78.53,1.16-.11,7.21.53,14.55-.63,21.59-1.12,6.79-5.08,10.37-12.29,9.89-2.19-.15-4.44.54-7.77,1,2.76-2.38,4.96-4.27,7.07-6.1-2.85-1.66-8.2.73-9.84,5.04-.61,1.6-.14,3.61-.13,5.43,0,.5.21,1.01.18,1.51-.27,4.08-.53,8.17-.87,12.25-.17,2.04-.33,4.11-.81,6.1-1.24,5.16-4.03,7.07-9.42,6.86-1.93-.07-3.95-.19-5.8.26-7.25,1.75-9.97,7.89-7.06,15.94,1.09,3.02,1.87,5.89,1,9.15-2.7,10.04-11.52,15.13-21.55,12.32-1.62-.45-3.29-.71-5.76-1.23,2.34-.52,4.04-.9,5.77-1.28-1.61-2.23-4.84-2.22-9.19-.09-3.33,1.63-5.28,4.84-4.31,7.94,1.46-1.54,2.64-3,4.06-4.17.8-.66,2-.84,3.03-1.23.04.97.19,1.95.09,2.9-.61,5.69-1.25,11.38-1.94,17.07-1.04,8.64-7.78,13.8-16.36,12.39-6.3-1.04-12.56-2.36-18.86-3.43-2.31-.39-4.68-.44-7.02-.65-.08.28-.15.55-.23.83,4.2,1.77,8.37,3.61,12.61,5.28,3.53,1.39,7.08,2.78,10.73,3.77,2.42.66,2.75,2.11,2.53,4.08-.44,3.9-2.44,6.91-5.64,9.09-4.91,3.35-10.18,4.88-16.25,3.73-3.42-.65-7.01-.39-10.52-.54-.05.34-.1.68-.15,1.02,5.13,1.17,10.26,2.34,15.74,3.59-5.94,9.1-13.98,13.87-24.28,15.01-8.96.99-17.7-.55-26.44-2.15-3.08-.56-6.14-1.25-9.3-1.47,11.94,5.25,24.55,7.43,37.57,7.88-3.37,11.3-6.89,15.79-18.96,17.78-6.77,1.11-13.79.67-20.7.92-.84.03-1.67.02-2.57.65,3.29.47,6.58,1.05,9.89,1.38,3.31.33,6.65.4,9.71.57-1.35,3.26-2.68,6.47-4.03,9.68-1.46,3.46-3.88,5.86-7.46,7.23-7.65,2.92-15.63,3.46-23.66,3.23-7.57-.22-15.12-.96-22.68-1.45-.61-.04-1.22,0-2.09,0,4.56,4.13,19.34,5.66,39.09,4.26.76,3.66-1.1,6.87-5.28,8.28-2.96,1-6.1,1.42-9.14,2.2-2.19.57-4.46,1.06-6.47,2.04-3.45,1.68-4.43,4.42-3.66,9.16.72,4.43.96,8.79-.96,13.05-2.08,4.59-5.85,7.2-10.35,8.79-9.94,3.52-20.19,3.17-30.47,1.99-2.11-.24-4.22-.5-6.33-.76-.09.28-.19.56-.28.84,2.71.97,5.4,2.03,8.14,2.9,2.79.88,5.61,1.69,8.46,2.31,2.94.63,5.94.99,9.04,1.49-.56,3.44-1.19,6.82-1.66,10.21-.86,6.3-4.68,9.99-10.38,12.16-8.95,3.4-17.99,3.42-27.12.82-1.52-.43-3.05-.85-4.88-1.37,1.15,3.43,6.04,5.97,13.72,6.69,5.1.48,10.28.02,15.36-.01-.53,3.01-.93,6.32-1.71,9.53-1.41,5.84-5.75,9.36-10.7,11.96-5.72,3.01-11.94,5.11-17.52,8.34-8.32,4.82-15.14,11.28-17.74,21.02-.66,2.47-1.22,5.23,1.24,7.74.39-.65.73-.96.77-1.31,1.51-13.04,10.59-20.16,20.92-25.93,7.02-3.92,15.06-5.94,21.11-11.68,2.42-2.29,4.51-4.57,4.7-8.16.1-1.8.96-3.56,1.17-5.37.53-4.59,1.58-8.18,6.89-10,5.96-2.05,8.6-7.22,8.63-13.62.01-1.93.25-3.9.71-5.77.88-3.56,2.62-5.92,6.81-6.7,8.34-1.56,13.79-7.18,16.72-14.85,1-2.61.51-5.99.03-8.92-1.3-7.92.22-10.35,8.25-11.16,4.86-.49,9.49-1.09,12.73-5.3,2.39-3.1,4.25-6.31,2.31-10.69,1.12-.3,2.04-.45,2.9-.79,3.7-1.46,7.49-2.75,11.02-4.53,2.8-1.41,4.22-3.84,4.72-7.24.88-6.04,5.24-9.7,10.63-11.68,7.92-2.91,13.46-7.73,15.05-16.29.58-3.09,2.24-4.4,5.36-5.01,8.69-1.7,15.07-6.27,17.54-15.3.23-.84,1.46-2.02,2.2-2,10.01.28,16.05-9.52,15.5-17.62-.04-.64-.02-1.28-.03-2.08,6.83-1.12,12.67-4.01,14.99-10.82,1.4-4.11,1.5-8.67,2.04-13.04.18-1.48-.27-3.04-.11-4.53.22-2.2.76-3.81,3.87-3.11,15.7,3.54,26.73-11.44,25.56-22.79-.33-3.21-.4-6.48-.26-9.7.22-5.16,1.52-6.2,6.57-6.1,2.58.05,5.24.3,7.73-.2,5.43-1.08,8.42-5.23,8.23-11.59-.1-3.31-.79-6.66-1.63-9.88-2.87-10.98.68-15.34,11.81-14.24,8.88.88,16.79-5.74,16.98-14.89.09-4.77-.7-9.67-1.87-14.32-1.68-6.7,1.05-10.7,7.93-10.53,8.55.21,12.65-2.65,15.74-10.86,1.89-5.01,2.17-10.1.91-15.26-.41-1.69.11-2.48,1.31-3.78,2.2-2.38,4.52-5.21,5.28-8.24,1.65-6.55,2.34-13.34,3.45-20.22,5.88-.92,10.38-5.23,13.94-10.35,6.14-8.82,7.82-19.18,8.67-29.59.58-7.1.42-14.26.66-21.39.04-1.26.13-2.68.71-3.74,8.34-15.1,11.58-31.63,13.76-48.46.78-6,1.4-12.01,2.18-18.81,1.01,2.6,1.48,4.71,2.56,6.43,2.65,4.18,5.57,8.19,8.4,12.26,4.08,5.86,8.63,11.54,9.16,19.03.28,3.91.02,7.86-.12,11.78-.08,2.26-.93,4.62-.49,6.74.67,3.22-.18,5.58-2.21,7.95-6.48,7.58-7.84,15.9-3.46,25.05.33.68.03,2.19-.53,2.69-7.06,6.26-10,14.41-11.34,23.45-1.07,7.23-3.98,13.3-10.73,17.27-5.75,3.39-7.84,9.08-7.43,15.58.25,3.99,1.07,7.94,1.39,11.93.61,7.79-1.89,12.06-9.13,15-8.56,3.48-14.4,9.26-15.93,18.51-.9,5.41-1.07,10.95-1.37,16.44-.24,4.32-.06,8.65-.26,12.97-.29,6.1-3.1,9.05-9.13,9.8-2.04.25-4.09.39-6.14.58-7.42.67-12.19,4.88-13.32,12.31-.5,3.28-.28,6.69-.31,10.03-.01,1.29.23,2.59.3,3.88.38,7.7-.86,9.36-8.37,11.17-1.05.25-2.1.57-3.17.71-11.95,1.56-16.04,11.13-16.08,19.9-.02,4.75.55,9.51.52,14.26-.05,8.47-3.4,12.54-11.63,14.36-3.06.68-6.24.88-9.28,1.65-3.54.9-7.16,1.81-10.43,3.38-6.48,3.11-8.82,8.91-8.93,15.77-.06,4.11.03,8.22.1,12.33.12,7.08-8.06,17.46-17.44,15.8-8.12-1.43-16.23,6.86-17.7,15.74-1.09,6.61-1.42,13.34-2.4,19.98-.42,2.85-1.61,5.58-2.46,8.37-.64,2.09-1.69,2.7-4.1,2.1-10.52-2.59-21.1,3.79-23.49,14.15-.54,2.33,0,4.91.07,7.37.14,4.39.67,8.81.25,13.14-.15,1.54-2.35,3.55-4.03,4.12-3.22,1.08-6.72,1.69-10.13,1.76-5.32.11-8.38,3.16-10.47,7.35-1.46,2.92-3.38,4.97-6.38,6.05-1.32.48-2.65,1.02-4.03,1.26-6.38,1.11-11.45,4.14-16.25,8.65-9.1,8.56-25.49,11.52-35.69,2.52-.37-.32-.93-.43-2.23-.24.36,1.01.52,2.16,1.11,3,4.32,6.15,10.73,8.36,17.8,8.3,5.21-.05,10.41-1.17,15.71-1.83-1.21,4.09-4.33,6.91-8.59,7.34-6.41.64-12.92.55-19.38.45-6.06-.09-11.76.96-16.38,4.98-1.92,1.67-3.07,4.3-4.39,6.58-1.43,2.47-2.67,5.05-3.99,7.58.19.3.39.6.58.9.18-.38.31-.78.54-1.12,1.1-1.71,1.99-4.63,3.37-4.89,7.06-1.32,11.7-8.57,19.5-7.7.4.04.8.07.62.06-2.67,3.07-5.69,6.1-8.14,9.53-1.58,2.22-2.46,4.99-3.36,7.6-.2.58.57,1.96,1.24,2.32,4.58,2.44,6.86,5.98,5.44,11.19-1.38,5.07-6.31,8.68-11.96,8.95-1.83.09-3.69-.33-5.5-.17-4.71.43-9.49.66-14.08,1.71-4.34.99-6.34,5.04-8.25,8.63-3.89,7.34-3.99,15.52-4.67,23.54-.2,2.37-.24,4.78-.73,7.1-1,4.79-3.55,6.45-8.44,5.86-3.86-.46-7.73-1.32-11.57-1.24-9.82.22-16.14,7.15-15.53,16.89.15,2.32-.63,2.98-2.58,3.51-8.9,2.43-15.69-1.3-16.78-10.44-.76-6.34-.42-12.98.54-19.32,1.85-12.22,4.67-24.4,2.28-36.74-1.52-7.82-3.65-15.68-6.7-23.02-13.17-31.64-16.67-64.78-16.48-98.61.15-26.61,2.97-52.96,7.76-79.09,4.22-23.04,10-45.71,16.9-68.11,7-22.7,14.99-45.03,24.7-66.69,6.68-14.9,14.03-29.53,21.81-43.89,15.29-28.22,33.29-54.69,53.4-79.72,20.45-25.46,42.66-49.23,67.64-70.32,20.72-17.5,42.21-33.98,65.96-47.16,14.66-8.13,29.88-15.28,44.91-22.74,16.93-8.4,32.73-18.59,48.05-29.6,10.74-7.71,21.83-14.92,34.13-19.99,6.85-2.82,13.89-4.9,21.39-4.92,10.58-.03,21.51,9.53,21.54,19.07,0,2.42-.37,5.1-1.43,7.22-2.52,5.01-5.57,9.76-8.41,14.62-2.81,4.8-5.62,9.6-9.1,14.36.96-7.13,1.93-14.25,2.89-21.38-.32-.13-.65-.25-.97-.38-.96,1.68-2.09,3.28-2.84,5.05-4,9.44-4.68,19.36-3.51,29.37,2.22,18.99,3.67,38.01-.21,56.89-2.48,12.06-6.07,23.9-9.18,35.83-.13.49-.51.91-.77,1.37-.34,0-.69-.01-1.03-.02ZM300.63,341.71c-.26-.11-.53-.23-.79-.34-6.45,10.36-13.03,20.65-19.32,31.11-15.02,24.99-28.16,50.96-39.48,77.82-12.45,29.52-22.13,59.93-29.11,91.21-4.82,21.61-7.97,43.45-9.19,65.52-1.94,34.85,1.26,69.24,10.92,102.86,2.86,9.97,6.85,19.61,10.14,29.46,3.56,10.64,4.07,21.33.71,32.23-1.85,5.98-3.17,12.16-4.19,18.33-1.01,6.11-.16,12.14,3.37,17.46.55.83,1.98,1.09,3,1.61,0-1.14.42-2.52-.06-3.4-2.99-5.37-3.79-11.07-2.55-16.98,1.29-6.14,2.57-12.32,4.5-18.28,3.95-12.22,3.3-23.96-1.71-35.79-4.17-9.85-8.36-19.8-11.2-30.07-7.66-27.72-10.13-56.13-9.58-84.85.53-27.62,4.07-54.84,10.38-81.69,6.21-26.41,14.71-52.1,24.9-77.26,12.94-31.96,28.21-62.77,44.78-92.96,4.77-8.7,9.67-17.33,14.51-26ZM258.84,435.35c-.24-.09-.47-.18-.71-.27-2.72,5.76-5.57,11.46-8.15,17.28-11.66,26.31-20.15,53.71-27.66,81.44-6.44,23.8-10.59,48.02-11.79,72.63-1.81,37.31,2.65,73.68,18.03,108.2,3.59,8.05,6.31,16.37,5.88,25.39-.08,1.73-.87,4.4,1.73,4.43,2.62.04,1.74-2.77,1.81-4.37.41-10.44-2.66-20.18-6.92-29.45-9.04-19.7-14.42-40.3-16.44-61.82-2.87-30.62-.49-60.94,5.2-91.09,6.42-34.01,17.63-66.52,30.32-98.6,3.1-7.84,5.8-15.83,8.68-23.76ZM251.82,484.04l-.34-.13c-.85,2.07-1.8,4.11-2.53,6.23-5.58,16.16-11.31,32.27-16.62,48.51-5.09,15.57-8.63,31.56-10.74,47.8-3.42,26.37-2.59,52.65,2.59,78.76,4.05,20.41,10.62,39.91,20.86,58.09.55.98,1.97,1.46,2.98,2.18-.09-1.16.14-2.46-.31-3.45-6.71-14.58-12.3-29.55-16.52-45.05-5.08-18.68-7.81-37.72-8.35-57.02-.46-16.58,1.05-33.05,3.9-49.41,3.85-22.16,10.14-43.64,17.35-64.88,2.46-7.25,5.15-14.42,7.74-21.62ZM239.58,525.14c-5.74,6.4-15.94,92.29-13.38,101.91,1.58-33.72,7.64-66.81,13.63-99.91.08-.45-.11-.95-.25-1.99ZM228.31,625.92c-.75,21.34,3.79,41.31,14.14,59.8.55-.14,1.1-.28,1.66-.42-7.21-19.31-13.11-38.94-15.8-59.37ZM233.48,518.48c.34.06.69.12,1.03.18.28-.57.62-1.11.85-1.7,2.79-7.28,5.51-14.59,8.35-21.85,4.69-12,9.56-23.93,14.15-35.97,1.43-3.76,2.23-7.76,3.31-11.64-.36-.1-.71-.19-1.07-.29-.2.48-.41.96-.59,1.45-4.56,11.81-9.06,23.64-13.68,35.42-3.75,9.56-7.71,19.04-11.41,28.62-.69,1.78-.64,3.85-.93,5.79ZM251.24,534.89c-9.27,28.37-13.79,57.57-15.98,87.2,3.69-29.39,9.47-58.39,15.98-87.2ZM243.41,532.11c-5.11,12.5-13.25,69.53-11.7,78.66,3.75-25.24,7.74-52.02,11.7-78.66ZM399,273.6c-11.59,3.42-49.61,33.39-50.41,40.32,16.02-15.29,32.21-29.08,50.41-40.32ZM442.09,503.22c-.83,2.58-2.79,4.66-.97,8.25,3.28-6.29,7.73-10.13,15.2-10.97-3.63-1.95-6.2-1.23-8.95-.4-2.16.66-4.52.72-6.8.87-2.68.17-5.43-.19-8.03.31-2.21.43-4.43,1.61-4.49,5.39,3.84-1.94,7.2-3.63,10.56-5.32-1.7,2.64-4.95,3.68-4.69,8.2,3.09-2.4,5.64-4.37,8.18-6.34ZM273.06,468.42c4.83-22.29,9.66-44.57,13.89-64.08-6.5,18.99-12.76,40.96-13.89,64.08ZM280.84,459.15c5.27-20.6,10.54-41.2,15.12-59.11-7.07,17.25-13.83,37.46-15.12,59.11ZM382.48,248.07c15.35-11.54,30.69-23.08,44.2-33.23-15.16,7.89-31.42,18.21-44.2,33.23ZM378.19,244.47c14.2-13.67,30.08-25.12,46.91-35.3-17.27,9.61-35.19,18.34-46.91,35.3ZM243.03,604.67c3.65-17.79,7.3-35.57,10.95-53.36-.32-.06-.64-.13-.95-.19-6.28,17.26-8.32,35.37-10,53.55ZM346.47,307.66c15.14-13.78,30.72-26.98,48.96-36.63-18.69,9.06-35.71,20.35-48.96,36.63ZM356.36,321.94c13.94-12.72,27.88-25.44,41.81-38.16-15.77,10.76-30.21,22.98-41.81,38.16ZM248.85,601.93c3.18-6.63,9.69-36.89,8.32-42.29-3.64,12.14-9.28,40.79-8.32,42.29ZM260.63,503.22c.39,0,.78,0,1.17,0,.53-15.27,1.06-30.55,1.59-45.82-.26,0-.52-.02-.79-.02-2.25,15.23-2.78,30.51-1.97,45.85ZM278.6,409.5c-5.1,16.36-9.49,33.92-9.56,52.32,3.25-17.78,6.5-35.57,9.56-52.32ZM353.01,315.06c12.62-10.37,25.23-20.74,38.23-31.42-14.6,8.78-27.71,18.6-38.23,31.42ZM509.96,169.96c-12.37,5.6-25.08,10.54-36.14,18.69,13.12-4.15,24.27-12.11,36.14-18.69ZM479.33,460.91c-5.25-2.15-9.86-.94-14.37-.87-.79.01-1.56,1.39-2.33,2.13.99.46,1.99,1.3,2.98,1.3,1.66,0,3.31-.56,4.81-.85-.62,2.22-1.29,4.26-1.71,6.35-.11.55.52,1.25.8,1.89.55-.38,1.49-.67,1.6-1.15.97-4.15,3.75-6.69,8.22-8.8ZM386.34,250.68c.24.28.48.55.72.83,4.91-4.64,9.61-9.51,14.77-13.84,5.2-4.35,10.85-8.15,16.31-12.2-12.22,6.43-24.04,13.34-31.8,25.21ZM292.36,371.99c-6.35,9.96-13.22,19.62-18.04,30.43.5.28,1,.56,1.5.84,6.34-9.96,11.7-20.47,16.54-31.27ZM261.81,782.02c.67.73,1.26,1.38,1.85,2.03.58-.59,1.46-1.08,1.69-1.79,1.35-4.1,2.59-8.24,3.75-12.39.13-.46-.45-1.12-1.01-2.37-1.64,3.64-2.95,6.53-4.34,9.63-.59-.89-.98-1.47-1.56-2.33-1.7,2.82-3.21,5.35-4.73,7.87.15.21.31.43.46.64,1.33-.44,2.66-.88,3.88-1.29ZM474.15,185.14c11.19-5.52,22.38-11.04,33.57-16.56-12.22,3.34-23.92,7.79-33.57,16.56ZM334.99,304.91l-.52-.64c-7.99,6.65-15.98,13.3-23.97,19.95.29.34.59.69.88,1.03,9.35-5.05,16.5-12.67,23.61-20.34ZM323.38,344.99c6.55-7.36,13.26-14.59,17.51-23.6-7.42,6.7-12.7,14.99-17.51,23.6ZM392.55,295.14c-10.01,6.83-19.64,14.25-26.78,24.32.2.21.4.43.6.64,8.72-8.32,17.45-16.64,26.17-24.97ZM312.33,344.02c.25.19.5.38.75.57,1.15-1.09,2.49-2.05,3.4-3.31,2.24-3.12,4.17-6.47,6.44-9.57,2.37-3.25,4.98-6.33,7.49-9.48-.25-.19-.5-.38-.75-.58-5.98,7.3-14.36,12.71-17.33,22.37ZM358.66,336.63c-.22-.23-.45-.46-.67-.69-9.16,5.33-14.94,13.71-20.82,23.02,7.52-7.81,14.5-15.07,21.49-22.34ZM316.14,348.84c-6.99,3.51-13.7,12.45-13.51,16.77,2.31-1.72,4.45-3.89,7.05-5.08,2.38-1.09,3.41-2.38,3.39-4.44-1.45.93-2.97,1.9-4.49,2.88-.12-.2-.25-.4-.37-.6,2.64-3.17,5.29-6.35,7.93-9.52ZM475.47,477c1.76-6.11,4.89-10.36,10.99-12.1-3.42-2.29-6.72-1.46-9.79,1.73-3.04,3.15-3.76,6.71-1.2,10.37ZM347.71,298.28c5.73-4.17,11.35-8.52,17.22-12.47,5.94-4,12.14-7.62,18.23-11.4-13.1,6.05-25.35,13.37-35.45,23.87ZM236.46,768.02c-.52-.14-1.05-.29-1.57-.43-2.02,6.32-4.09,12.62-5.97,18.97-.17.57.84,1.49,1.6,2.75,2.13-7.63,4.04-14.46,5.95-21.29ZM362.36,338.9c-11.02,5.86-17.7,14.41-22.19,22.92,6.48-6.69,14-14.46,22.19-22.92ZM335.35,310.71c-.22-.23-.44-.45-.66-.68-7.81,7.43-16.34,14.12-23.27,22.43.37.38.74.75,1.11,1.13,7.61-7.63,15.22-15.25,22.83-22.88ZM258.12,476.72c-.27.01-.53.03-.8.04-.94,10.31-.51,20.54,1.48,30.7l.83-.04c-.5-10.23-1.01-20.47-1.51-30.7ZM472.45,199.19c-.21-.23-.41-.47-.62-.7-4.68,3.58-10.79,5.63-12.93,13.19,5.6-3.32,10.53-6.25,15.45-9.18-.04-.15-.09-.3-.13-.46-2.8,1.04-5.6,2.09-8.4,3.13-.12-.26-.25-.52-.37-.78,2.34-1.73,4.67-3.46,7.01-5.2ZM300.25,405.6c-5.56,7.87-12.01,31.8-10.1,37.31,1.3-6.34,2.3-12.75,3.99-18.98,1.69-6.23,4.06-12.28,6.11-18.33ZM254.35,488.27c-.32.02-.64.04-.96.06-.73,8.8-.26,17.53,1.28,26.19.42-.03.84-.05,1.26-.08-.53-8.73-1.06-17.45-1.58-26.18ZM275.31,762.91c-5.62,6.76-7.8,15.27-3.89,18.3,1.34-6.29,2.61-12.27,3.89-18.3ZM240.56,802.31c.32.05.65.09.97.14,3.34-9.02,10.69-7.47,17.76-7.16-3.34-1.01-6.7-1.92-10.06-1.96-3.93-.04-7.04,2.04-8.75,5.68-.42.89.03,2.19.08,3.31ZM363.46,353.32c-.22-.23-.43-.45-.65-.68-6.43,6.05-12.98,11.99-18.59,18.82.34.32.68.65,1.02.97,6.07-6.37,12.15-12.74,18.22-19.11ZM361.87,349.19c-.19-.27-.38-.54-.57-.81-7.48,5.09-13.88,11.32-19.09,18.8,6.55-6,13.11-11.99,19.66-17.99ZM502.13,434.22c3.09-3.46,5.72-6.36,8.28-9.32.26-.3.25-1.35.13-1.39-.63-.21-1.47-.51-1.98-.26-3.33,1.67-5.71,4.3-6.86,7.85-.29.88.26,2.03.43,3.12ZM318.24,313.42c.46.5.91,1,1.37,1.5,4.54-4.19,9.08-8.39,13.61-12.58-.4-.44-.8-.87-1.2-1.31-4.59,4.13-9.19,8.26-13.78,12.39ZM501.45,179.78c-.17-.3-.34-.6-.51-.89-6.96,3.92-14.57,6.7-20.91,11.71.21.38.43.75.64,1.13,6.93-3.98,13.85-7.96,20.78-11.94ZM249.76,497.45c-.33.04-.66.08-.99.13,1.12,8.85,2.25,17.7,3.37,26.54.43-.05.86-.11,1.29-.16-1.22-8.83-2.44-17.67-3.66-26.5ZM247.63,509.02c-.27.1-.53.2-.8.3-.07,7.6,1.54,15.02,4.53,17.12-1.24-5.81-2.48-11.61-3.73-17.42ZM261.36,428.46q2.54.16,5.88-7.89c1.37-3.3,2.77-6.59,4.16-9.89-.19-.09-.38-.19-.56-.28-3.14,5.99-6.29,11.99-9.47,18.06ZM503.74,166.79c-.12-.29-.25-.57-.37-.86-8.19,3.57-16.38,7.14-24.57,10.71.15.34.3.68.44,1.02,8.17-3.62,16.34-7.25,24.51-10.87ZM398.6,244.51c.21.28.43.57.64.85,6.88-5.15,13.76-10.3,20.63-15.46-.2-.27-.4-.53-.6-.8-6.89,5.14-13.78,10.27-20.67,15.41ZM505.93,421.62c-.41-.31-.81-.62-1.22-.93-2.83,1.51-4.55,4.09-5.94,6.92-.18.38.19,1.39.57,1.58.4.2,1.37-.06,1.65-.44,1.72-2.33,3.31-4.75,4.94-7.14ZM302.06,372.69c.24.18.48.35.72.53,2.67-3.84,5.33-7.69,8-11.53l-.64-.52c-2.77,2.55-5.53,5.1-8.85,8.16,1.56.15,2.09.2,2.68.25-.7,1.14-1.3,2.13-1.91,3.12ZM350.87,337.55c-.24-.26-.47-.52-.71-.79-3.78,3.57-7.56,7.13-11.34,10.7,4.67-2.58,9.8-4.66,12.05-9.91ZM298.51,380.03c-4.83,2.66-8.22,8.99-6.37,11.49,2.07-3.73,4.12-7.43,6.37-11.49ZM365.84,280c.23.44.47.88.7,1.31,6.44-4.04,12.89-8.09,18.79-11.8-6.12,3.29-12.81,6.89-19.49,10.48ZM406.31,241.86c.42.76.84,1.52,1.26,2.28,4.69-2.88,9.38-5.76,14.06-8.63-.17-.29-.34-.59-.51-.88-4.94,2.41-9.87,4.83-14.81,7.24ZM458.21,202.26c.22.51.45,1.01.67,1.52,4.59-2.16,9.19-4.32,13.78-6.48-.14-.32-.29-.65-.43-.97-4.67,1.98-9.35,3.96-14.02,5.94ZM233.99,806.42c-.95-3.62-1.89-7.23-2.81-10.73-2.1,3.97-1.41,8.06,2.81,10.73ZM238.06,748.72c-3,5.1-3.29,8.75-1,10.07.9-3.1,1.67-6.12,1-10.07ZM243.69,514.58c-.26.07-.52.14-.78.22.46,4.48.43,9.06,2.24,13.26.46-.09.91-.19,1.37-.28-.95-4.4-1.89-8.8-2.84-13.19ZM260.7,576.05c-2.09,4.04-4.2,8.12-3.32,12.71.33.06.66.12.98.17.78-4.29,1.56-8.59,2.34-12.88ZM267.6,436.14c-2.92,4.34-3.97,8.74-2.67,13.63.88-4.49,1.75-8.93,2.67-13.63ZM422.02,498.36c-.1.29-.2.59-.29.88,1.95.55,3.91,1.09,5.86,1.64.09-.3.17-.59.26-.89-1.94-.54-3.88-1.08-5.83-1.63ZM504,420.11c-.02-.59-.03-1.18-.05-1.77-1.89.12-3.78.24-5.66.36.02.49.04.98.06,1.46,1.88-.02,3.77-.04,5.65-.05Z"/>
      <path class="cls-1" d="M313.21,792.34c-1.17,3.4-2.36,6.79-3.49,10.2-.74,2.26-2.78,5.01.33,6.59,2.74,1.39,4.3-1.55,5.56-3.33,2.83-4,3.87-8.59,3.46-13.55-.45-5.56-1.99-11.14.35-16.69,1.65-3.9,4.19-6.81,8.29-8.11,3.04-.96,3.76-.37,4.07,2.81.86,8.64,1.76,17.28,2.64,25.89,2.34-5.57,4.15-11.39,4.15-17.77,0-7.24.09-14.5.64-21.72.52-6.69,4.5-10.78,9.94-11.52,2.17-.3,3.18.16,3.47,2.47.72,5.68,1.62,11.34,2.5,17.01.17,1.09.58,2.15.87,3.22.42,0,.85,0,1.27,0,.59-4.59,1.45-9.17,1.71-13.79.42-7.43.3-14.84-1.16-22.25-1.13-5.73.46-11.1,4.42-15.7,1.69-1.96,3.64-2.58,5.75-1.64,5.14,2.28,9.81,1.98,14.53-1.56-1.34,3.36-2.78,6.69-3.94,10.11-.35,1.03.05,2.33.1,3.5.99-.6,2.33-.97,2.91-1.85,5.48-8.15,7.22-17.59,5.32-26.74-1.16-5.59-1.35-10.79-.82-16.19.54-5.56,3.06-7.17,8.55-7.15,3.6.01,7.2-.84,10.76-1.3-.15.82-.34,1.93-.54,3.04.25.22.5.44.74.66,1.42-1.29,3.22-2.34,4.19-3.91,4.27-6.9,6.79-14.16,4.21-22.48-.75-2.4-.83-5.16-.55-7.68.75-6.78,6.5-10.65,13.25-9.58,8.94,1.41,12.74-2.06,14.51-8.78,1.45-5.49,1.8-11.28,2.57-16.94.45-3.31.44-6.73,1.25-9.95,1.88-7.45,5.86-10.42,13.49-10.67,10.92-.35,20.25-8.88,21.51-19.87.4-3.54.44-7.13.43-10.69-.05-10.92,3.72-15.41,14.4-17.17,4.16-.69,8.33-1.41,12.39-2.51,8.73-2.38,12.81-7.77,12.7-16.86-.06-5.19-.67-10.36-.93-15.55-.08-1.5.22-3.02.26-4.53.15-5.41,3.54-8.14,8.17-9.69,2.97-1,6.06-1.65,9.07-2.55,6.53-1.95,10.11-6.42,10.36-13.24.1-2.8-.55-5.63-.34-8.41.22-2.93.61-6.01,1.73-8.68,1.7-4.06,4.84-6.34,9.67-6.14,12.57.51,17.37-8.64,17.98-17.93.46-6.98-.44-14.04-.48-21.07-.05-8.83,4.4-14.89,12.21-18.66,2.43-1.17,4.88-2.31,7.36-3.41.52-.23,1.21-.37,1.74-.23,4.08,1.14,7.61.3,10.31-3,3.19-3.9,5.39-8.21,4.56-13.66-2.09,5.66-6.59,8.9-11.33,12.09,3.99-7.49,2.48-15.07.79-22.58-1.37-6.09.6-10.59,5.7-13.92,3.79-2.47,7.75-4.67,9.84-9.13.57-1.22,2.57-1.87,4.02-2.57,4.67-2.27,9.48-4.26,14.06-6.71,4.7-2.51,8.54-6.02,10.85-11.7-2.4,2.65-4.38,4.85-6.37,7.04-.18-.13-.37-.26-.55-.39.94-1.86,1.88-3.72,2.82-5.58-4.27,3.44-7.53,7.93-13.35,9.27,1.14-1.87,2.28-3.74,3.6-5.91-4.26,1.7-8.22,3.28-12.19,4.86-.41-.35-.83-.7-1.24-1.05.85-3.24,1.31-6.64,2.64-9.67,2.95-6.78,8.44-11.66,13.55-16.78,3.29-3.29,6.77-6.39,10-9.74.61-.63.46-1.99.66-3.01-.95.06-2.08-.19-2.82.23-4.2,2.42-8.3,5.01-12.61,7.65-2.43-4-3.43-8.22-.62-12.17,5.38-7.57,11.15-14.86,16.75-22.27,1.07-1.42,2.09-2.89,3.51-4.88-6.25.82-9.9,4.87-14.59,8.15.2-1.21.13-1.9.42-2.37,4.05-6.61,8.03-13.26,12.27-19.75,2.56-3.93,5.23-7.73,5.43-12.63.02-.39-.1-.79-.9-1.54-1.56,2.43-3.12,4.87-4.68,7.3-.17-.14-.42-.28-.4-.36,3.71-16.98,3.98-34.37,6.02-51.54,1.74-14.57,4.79-28.95,13.92-41.05,6.18-8.2,14.16-13.73,24.88-13.75,7.35-.02,12.94,3.97,16.62,9.83,3.89,6.19,7.28,12.81,9.95,19.62,11.23,28.57,19.84,57.95,25.91,88.05,9.83,48.76,13.18,97.94,9.63,147.6-2.98,41.56-10.33,82.3-22.3,122.18-8.42,28.05-18.99,55.32-32.24,81.47-7.51,14.83-15.71,29.32-23.76,43.87-.88,1.6-3.23,2.37-4.18,3.95-4.96,8.24-9.43,16.79-14.56,24.91-4.33,6.85-9.21,13.36-14.07,19.86-15.37,20.57-31.96,40.09-50.45,57.94-24.41,23.56-51.23,43.63-82.63,57.11-19.22,8.25-39.45,12.86-59.86,16.81-20.93,4.06-42.08,7.15-62.78,12.12-16.15,3.88-31.84,9.8-47.6,15.19-12.71,4.35-25.23,9.32-38.73,10.66-9.68.96-19.09.11-27.27-5.91-4.57-3.36-5.26-6.55-3.2-11.74,1.07-2.71,1.84-5.55,2.69-8.35,1.36-4.5,4.09-7.92,8.34-9.86,14.25-6.52,24.01-17.37,30.56-31.37.12-.25.43-.42.64-.63.26.1.51.2.77.29ZM742.53,369.33c.37-.81,1.1-1.65,1.06-2.44-.19-3.64-.57-7.27-.93-10.9-.11-1.05-.41-2.09-.63-3.13l-1.1.17c.55,5.47,1.1,10.95,1.65,16.42-.62-2.28-1.17-4.58-1.89-6.83-.71-2.19-1.61-4.33-2.42-6.49-.07.09-.15.17-.22.26,1.08,8.05,2.15,16.11,3.23,24.16.33-.02.67-.03,1-.05.09-3.72.17-7.43.25-11.18ZM736.87,308.48c-2.49-7.78-4.97-15.57-7.46-23.35-.27.08-.55.16-.82.24,3.3,13.4,6.59,26.79,9.89,40.19.4-.08.8-.16,1.2-.24-.86-4.71-1.71-9.43-2.57-14.14.66,1.1,1.33,2.21,1.97,3.28.73-7.36-3.62-25.36-7.45-29.41.39,1.53.69,2.53.91,3.54,1.45,6.63,2.89,13.27,4.34,19.9ZM731.69,318.28c-1.84-5.9-3.68-11.8-5.52-17.71-.23.06-.46.12-.69.18,3.79,15.74,7.57,31.49,11.36,47.23.5-.11,1-.22,1.5-.33-.95-4.69-1.9-9.37-2.85-14.06.85,1.27,1.71,2.55,2.56,3.82.3-.08.6-.16.9-.24-4.26-15.81-8.52-31.62-12.78-47.43-.34.08-.67.17-1.01.25.72,3.13,1.45,6.27,2.17,9.4,1.45,6.29,2.9,12.59,4.35,18.88ZM692.45,553.16c-.1-.82-.28-1.65-.28-2.47.02-11.97.2-23.95.04-35.92-.06-4.65-.88-9.29-1.35-13.93-.07.02-.13.04-.2.07-.24,20.04-.49,40.09-.73,59.87,2.69-1.54,1.53-5.04,2.46-7.75.06,1.21.11,2.41.18,3.84,4.68-4.52,8.44-38.58,5.71-51.34-.35,7.59-.66,14.61-.98,21.63-.23,0-.47-.02-.7-.02-.2-8.75-.39-17.51-.59-26.26-.26,0-.53.02-.79.03,0,5.58.26,11.18-.08,16.74-.72,11.85-1.76,23.68-2.67,35.51ZM486.85,805.69c-.08-.34-.17-.69-.25-1.03-.98.22-1.96.43-2.93.67-7.25,1.79-14.42,4.02-21.76,5.31-18.31,3.21-36.68,6.08-55.06,8.94-26.67,4.14-52.5,10.84-76.53,23.64-9.12,4.86-18.66,8.92-29.5,5.82-.48-.14-1.18.53-1.78.82.41.69.67,1.8,1.24,1.98,2.15.69,4.37,1.35,6.6,1.53,8.99.76,17.16-2.3,24.84-6.36,20.37-10.79,41.98-17.85,64.51-22.28,22.06-4.33,44.19-8.37,66.22-12.82,8.21-1.66,16.26-4.13,24.39-6.22ZM319.28,836.5c3.18,2.48,6.84,2.88,10.18,1.53,6.09-2.46,12.04-5.32,17.86-8.37,8.65-4.54,17.29-9.13,26.99-10.9,19.36-3.53,38.78-6.79,58.17-10.18,5.96-1.04,11.9-2.15,17.86-3.23-2.11-.38-4.13-.22-6.14.07-20.77,3.02-41.54,6.06-62.31,9.1-13.38,1.96-26.32,5.24-38,12.43-7.57,4.66-15.21,9.2-24.61,9.55ZM681.26,567.77c3.63-1.26,4.7-3.54,4.75-6.85.15-9.2.73-18.39.82-27.58.08-8.01-.28-16.03-.45-24.05-1.08,17.99-.49,36.04-3.7,53.9.06-18.47.13-36.94.19-55.4-.44,0-.88,0-1.32,0-.1,19.91-.2,39.83-.29,59.98ZM733.39,351.32c1.59-5.82-6.76-46.12-10.55-52.9,2.29,11,4.58,21.99,6.88,32.99-.22.04-.43.09-.65.13-2.45-10.35-4.91-20.71-7.36-31.06-.59.81-.58,1.52-.44,2.2,2.56,12.62,4.98,25.27,7.81,37.84.84,3.73,2.84,7.2,4.31,10.8ZM710.15,177.13c-.28.15-.55.29-.83.44,5.45,8.98,10.73,18.03,13.69,28.16-.39.21-.79.43-1.18.64-1.44-3.09-2.88-6.19-4.31-9.28,2.52,9.51,8.38,21.66,11.06,24-.94-4.27-2.02-8.79-2.93-13.34-1.09-5.47-3.6-10.48-4.45-16.13-.7-4.63-3.26-9.14-5.69-13.3-2.43-4.16-5.73-7.81-8.65-11.68-.03.06-.07.12-.1.19,4.44,7.93,8.87,15.86,13.31,23.79-.24.14-.48.28-.73.42-3.07-4.64-6.13-9.27-9.2-13.91ZM741.84,387.78c-.38,6.66-.85,13.32-1.09,19.98-.11,3.11,1.4,6.89.1,9.22-2.03,3.63-.77,7-1.13,10.44-.11,1.04.6,2.17.93,3.27.26-.05.51-.09.77-.14.79-3.51,1.58-7.01,2.31-10.23.36-.4.98-.76,1.02-1.18.93-10.6-.69-20.99-2.9-31.36ZM471.75,754.01c.12-.37.23-.75.35-1.12-7-1.96-14-3.91-21-5.87.12-.45.23-.91.35-1.36,6.15,1.23,12.29,2.46,18.44,3.69-11.17-3.47-22.08-7.93-33.99-8.47.72.56,1.45,1.12,2.87,2.22-1.81-.37-2.65-.57-3.5-.7-.83-.13-1.66-.18-2.49-.27,12.4,6.34,25.97,8.09,38.97,11.87ZM303.13,811.71c-4.93,7.29-11.65,12.01-19.66,15.38-6.36,2.67-11.43,14.76-9.76,21.73.06.26.41.45,1.35,1.41,1.06-3.81,2.04-7.07,2.88-10.37,1.12-4.4,3.54-7.86,7.26-10.39,2.05-1.4,4.18-2.7,6.31-3.98,5.47-3.26,9.4-7.82,11.62-13.79ZM533.89,764.58c-.02-.34-.04-.68-.06-1.02-.94-.02-1.89-.14-2.81-.06-14.09,1.33-28.18,2.66-42.25,4.1-.74.08-1.38,1.08-2.64,2.14,17.26,2.96,32.14-4.19,47.77-5.17ZM686.86,350.72c.38-.14.76-.27,1.14-.41-2.46-8.5-4.92-17-7.38-25.49l-.87.23c.77,3.72,1.54,7.45,2.31,11.17l-.46.13c-.91-2.19-1.82-4.38-2.73-6.57-.22.09-.43.18-.65.27.5,1.92,1,3.85,1.7,6.5-1.11-1.37-1.76-2.18-1.92-2.37,1.17,5.8,2.46,12.14,3.82,18.87.43-1.55.77-2.76,1.23-4.4.9,2.58,1.65,4.71,2.4,6.85.27-.07.54-.13.81-.2-.28-2.13-.57-4.26-.91-6.82.68,1.02,1.09,1.63,1.49,2.24ZM493.63,756.91c.12.52.23,1.03.35,1.55,17.02-.51,33.91-2.34,50.67-5.53-3.87-.07-7.69.44-11.52.66-11.56.64-23.12,1.11-34.68,1.79-1.63.1-3.22,1-4.82,1.53ZM489.5,762.69c.21.56.41,1.11.62,1.67,15.77-1.66,31.55-3.32,47.32-4.98-.02-.34-.04-.68-.07-1.03-1.97.08-3.95.13-5.92.25-12.6.8-25.2,1.57-37.78,2.48-1.42.1-2.78,1.05-4.16,1.6ZM498.93,751.79c.13.44.26.89.39,1.33,16.46-1.8,32.91-3.6,49.37-5.4-.42-.75-.83-.99-1.22-.95-15.27,1.25-30.55,2.52-45.82,3.85-.93.08-1.81.77-2.72,1.18ZM668.15,569.91c3.46-4.56,6.11-45.78,4.03-53.14-1.37,18.02-2.7,35.58-4.03,53.14ZM700.13,392.11c2.56,20.09,5.12,40.17,7.68,60.26,1.02-20.63-3.33-40.54-7.68-60.26ZM696.3,393.93c2.29,19.44,4.59,38.87,6.94,58.82,1.66-5.76-3.54-51.45-6.94-58.82ZM718.52,497.01c.65,3.43,1.21,6.33,1.76,9.24,1.86-5.57-.1-28.23-2.67-34.47.16,5.99.31,11.97.49,18.77-.75-1.78-1.17-2.78-1.59-3.79l-.36.13c.14,4.93.28,9.86.42,14.8.21.01.42.02.63.03.39-1.38.77-2.77,1.32-4.71ZM598.13,733.16l-.18-.48c-8.8,2.25-17.59,4.5-26.74,6.83.9,1.05,1.25,1.45,1.6,1.86-1.28.65-2.36,1.19-3.44,1.74.07.31.13.63.2.94,1.07-.03,2.26.23,3.19-.14,5.12-2.08,11.03-1.69,15.48-6.22,2.37-2.42,6.53-3.08,9.88-4.53ZM469.25,593.49c9.04-2.3,16.17-17.54,16.62-30.89-2.6,11.86-9.73,21.29-16.62,30.89ZM526.48,767.74c-12.56,2.04-25.57,4.15-38.29,6.21,3.65,3.58,34.58-1.46,38.29-6.21ZM429.91,635.41c2.55,2.39,5.45,2.83,8.82.95,4.58-2.55,8.5-5.95,9.29-11.41.99-6.85,1.43-13.77,2.15-21.09-2.43,2.62-1.84,5.52-1.77,8.18.36,12.8-6.19,21.15-18.49,23.36ZM721.34,464.34c.87,13.32,1.74,26.64,2.61,39.96,2.88-13.6,1.41-26.88-2.61-39.96ZM525.42,515.74c-.31,8.38-4.17,14.71-10.85,19.52-.94.68-1.51,1.86-2.58,3.24,4.53,1.07,7.04-1.18,9.18-3.68,4.75-5.54,6.8-11.81,4.25-19.08ZM343.19,816.78c4.75,1.23,27.07-6.04,33.5-10.82-11.7,3.29-23,4.82-33.5,10.82ZM678.33,513.21c-.16.02-.32.04-.47.05-1.04,19.02-2.07,38.03-3.11,57.05.91-.54,1.57-1.39,1.6-2.26.81-17.92,1.56-35.85,2.3-53.78.01-.35-.21-.71-.33-1.07ZM440.63,757.19c.16-.24.33-.47.49-.71-2.42-1.5-4.84-3-7.26-4.5,3.29.65,6.32,1.78,9.39,2.74,2.93.92,5.92,1.67,8.88,2.5.08-.27.16-.54.24-.8-8.97-3.6-17.93-7.2-26.9-10.8-.19.41-.39.83-.58,1.24,3.99,5.34,10.61,6.71,15.74,10.33ZM658.55,650.39c9.5-11.34,15.31-24.51,19.39-38.54-6.46,12.85-12.93,25.69-19.39,38.54ZM530.15,784.42c.02-.3.04-.59.07-.89-8.27-.5-16.55-.91-24.74.93-.89.2-1.53,1.46-2.29,2.22.19.4.37.8.56,1.2,4.58-.04,9.17-.07,13.75-.11.03-.32.05-.64.08-.97-.95-.27-1.91-.53-2.86-.8.02-.16.03-.32.05-.48,5.13-.37,10.26-.74,15.39-1.11ZM508.33,743.93c0,.39,0,.77,0,1.16,13.74-.5,27.49-.99,41.23-1.49-13.77-1.41-27.53-2.29-41.23.33ZM571.5,735.78c.15.58.31,1.16.46,1.74,12.63-2.57,24.69-7.01,36.75-11.48-.1-.33-.19-.65-.29-.98-12.31,3.57-24.61,7.14-36.92,10.72ZM570.6,759.23c-.14-.36-.28-.72-.41-1.08-5.03,1.47-10.06,2.92-15.08,4.43-.59.18-1.19.6-1.59,1.08-1.85,2.2-3.4,4.7-6.82,4.78-.88.02-1.73.85-2.6,1.31.09.32.18.64.27.96,1.19-.2,2.43-.26,3.57-.62,3.79-1.19,7.54-2.55,11.34-3.72,1.5-.46,3.1-.61,4.65-.89-.05-.3-.09-.6-.14-.9-2.2.09-4.4.19-6.6.28l-.08-.4c4.49-1.74,8.99-3.49,13.48-5.23ZM688.89,344.61c.28-.03.57-.07.85-.1-.06-2.54-.82-5.33-.05-7.58,2.62-7.62-1.35-13.79-3.75-20.35.96,4.83,1.93,9.67,2.89,14.5l-.48.09c-1.36-3.61-2.72-7.22-4.08-10.82-.18.08-.37.15-.55.23,1.72,8.01,3.44,16.03,5.15,24.04ZM666.46,644.91c5.82-3.65,17.4-29.84,16.83-34.79-5.49,11.34-11.17,23.08-16.83,34.79ZM702.76,500.67c-.82,14.14-1.63,28.28-2.45,42.42,4.22-14.04,3.86-28.3,2.45-42.42ZM673.83,613.5c-.38-.19-.75-.38-1.13-.57-6.74,12.95-13.47,25.9-20.21,38.86.55.28,1.1.56,1.64.84,6.56-13.04,13.13-26.08,19.69-39.12ZM727.89,495c.45-.03.9-.06,1.35-.09.53-12.78-1.2-25.41-2.77-38.04-.37.03-.74.05-1.11.08.84,12.69,1.69,25.37,2.53,38.06ZM688.12,436.82c-1.42,11.35-2.84,22.7-4.25,34.06,5.08-10.92,5.68-22.37,4.25-34.06ZM624.04,705.5c-13.91,6.5-28.01,13.08-42.1,19.66,15.45-3.73,29.16-11.12,42.1-19.66ZM690.09,237.87c2.49,12.12,4.97,24.24,7.46,36.36.82-12.82-2.39-24.79-7.46-36.36ZM691.85,229.36c2.88,11.77,6.01,24.61,9.15,37.44.75-13.89-3.79-26.4-9.15-37.44ZM590.28,716.76c13.89-1.99,25.52-8.84,36.61-16.57-12.13,5.49-24.37,11.03-36.61,16.57ZM294.32,828.15c-3.23,2.86-6.65,5.54-9.62,8.65-2.04,2.13-3.81,4.69-5.04,7.36-1.12,2.44.2,4.6,2.84,6.24-.92-10.21,7.84-14.79,11.82-22.25ZM687.41,239.66c-.32.06-.65.12-.97.18,2.21,12.69,3.55,25.55,7.53,37.88.42-.09.84-.17,1.27-.26-2.61-12.6-5.22-25.2-7.82-37.79ZM572.24,730.41c.05.43.1.86.14,1.29,3.23-.39,6.65-.24,9.66-1.29,6.92-2.41,13.65-5.39,20.45-8.15,1.5-.61,2.98-1.27,4.46-1.94,1.36-.61,2.71-1.26,4.07-1.89-13.13,3.56-25.17,10.2-38.78,11.98ZM695.99,407.93c-.4.04-.8.08-1.19.12,1.66,13.79,3.31,27.59,4.97,41.38.54-.07,1.09-.14,1.63-.21-1.8-13.77-3.6-27.53-5.4-41.3ZM711.32,441.66c2.23-6.24-.59-32.44-3.29-34.29,1.1,11.47,2.2,22.88,3.29,34.29ZM698.72,321.71c1.36,9.96,2.92,19.82,6.82,29.11-.13-10.23-3.76-19.63-6.82-29.11ZM695.19,337.87c-.14.04-.29.09-.43.13-.07,3.72-.34,7.45-.17,11.16.18,3.75.79,7.47,1.22,11.21.33-.03.67-.07,1-.1l-.04-4.02c.14,0,.28,0,.42,0,.58,1.63,1.17,3.27,1.75,4.9.41-.11.83-.23,1.24-.34-1.66-7.65-3.32-15.3-4.98-22.95ZM551.11,475.16c-2.89,5.73-6.08,12.08-9.34,18.55,6.18-.45,11.55-12.54,9.34-18.55ZM406.74,685.33c6.07-.8,10.86-9.84,9.8-17.64-3.27,5.89-6.45,11.6-9.8,17.64ZM695.43,328.83c1.94,10.59,3.88,21.18,5.82,31.78,1.44-6.37-2.26-25.87-5.82-31.78ZM487.79,574.73c-.33-.04-.67-.08-1-.12-3.29,6.71-5.63,14.05-12.7,18.48,3.17,1.67,5.19.4,6.41-1.77,2.54-4.51,4.79-9.18,7.05-13.84.37-.77.18-1.82.24-2.74ZM449.82,628.18c-1.36,7.11-7.7,10.38-12.31,15.37,6.71,1.81,13.57-7.08,12.31-15.37ZM683.49,441.37c-1.68,9.69-3.35,19.39-5.03,29.08,4.99-9.15,5.53-19.03,5.03-29.08ZM496.85,717.54c.26.51.52,1.01.78,1.52,7.72-2.35,14.09-7.28,20.78-11.61-7.21,3.31-15.26,4.97-21.56,10.08ZM720.03,308.54c-.36.11-.72.21-1.07.32,1.94,9.28,3.84,18.57,5.87,27.83.17.8,1.16,1.41,1.77,2.11.17-.13.34-.27.51-.4-2.36-9.95-4.72-19.9-7.08-29.86ZM606.28,658.89c-.46-.3-.67-.55-.79-.51-8.04,2.81-16.09,5.61-24.09,8.55-.65.24-.93,1.46-1.74,2.84,9.39-3.84,17.92-7.32,26.61-10.88ZM580.26,673.88c8.15-3.49,15.72-6.73,23.06-9.87-7.58.31-14.79,2.89-21.49,6.94-.78.47-1.02,1.84-1.58,2.93ZM494.73,712.44c.29.5.57,1,.86,1.51,6.42-3.6,12.84-7.2,19.26-10.8-.28-.51-.55-1.01-.83-1.52-6.61,3.28-13.38,6.24-19.29,10.81ZM611,650.97l-.44-1.11c-8.6,2.46-17.21,4.89-25.79,7.42-.69.2-1.18,1.11-1.76,1.69.19.32.39.64.58.96,9.14-2.99,18.27-5.98,27.41-8.97ZM745.36,381.19c-.27.03-.54.06-.81.09-.92,5.34,1.42,25.48,3.96,28.09-1.05-9.4-2.1-18.79-3.15-28.19ZM667.39,539.98c-.3-.05-.6-.1-.91-.14-1.88,6.22-3.74,27.19-1.97,29.08.99-10.01,1.93-19.47,2.87-28.94ZM517.89,714.58c-6.57,4.16-14,7.17-18.59,13.93,7.47-2.97,12.61-9,18.59-13.93ZM730.04,450.82c-.46.06-.93.12-1.39.18,1.16,9.3,2.33,18.59,3.49,27.89.57-.08,1.14-.15,1.71-.23-1.27-9.28-2.54-18.57-3.81-27.85ZM661.9,652.31c-3.66,7.51-7.32,15.02-10.98,22.53.25.12.5.24.75.36,5.67-6.57,8.63-14.45,10.22-22.89ZM456.73,754.93c.12-.27.25-.54.37-.81-8.58-2.86-16.49-7.76-26.25-8.69.51.74.63,1.13.86,1.21,8.34,2.78,16.68,5.53,25.03,8.29ZM564.85,682.59c-3.97-.14-16.43,10.78-16.99,15.54,5.96-5.45,11.44-10.47,16.99-15.54ZM580.84,663.9c.21.26.42.53.63.79,8.11-3.14,16.22-6.28,25.22-9.76-1.35.11-1.77.07-2.15.18-7.25,2.15-14.52,4.27-21.73,6.55-.81.26-1.32,1.47-1.97,2.24ZM562.94,676.09c-.29-.3-.59-.61-.88-.91-5.73,5.45-12.19,10.14-17.23,16.3.39.4.77.79,1.16,1.19,5.65-5.53,11.3-11.05,16.96-16.58ZM580.94,611.92c8.94-1.33,15.42-6.91,19.27-10.12-4.38,2.3-11.82,6.21-19.27,10.12ZM405.86,766.89c-2.62-2.76-16.22-4.03-19.58-2.08,6.45,2.27,12.62,1.57,19.58,2.08ZM598.85,598.78c-4.03,2.18-11.69,6.32-17.66,9.55,7.15-1.28,14.32-6.35,17.66-9.55ZM701.27,273.34c1.86,8.16,3.53,15.51,5.2,22.87,1.71-5.3-1.19-17.75-5.2-22.87ZM652.09,641.91c.25.13.49.26.74.39,6.11-6.91,9.06-15.5,12.04-24.07-4.26,7.89-8.52,15.79-12.78,23.68ZM660.79,478.45c-.38-.15-.77-.31-1.15-.46-2.86,5.7-6.2,11.22-6.93,17.71.45.17.91.34,1.36.52,2.24-5.92,4.49-11.85,6.73-17.77ZM708.12,289.98c.43-.1.87-.2,1.3-.3-1.11-8.85-2.23-17.71-3.34-26.56-.49.07-.97.13-1.46.2,1.16,8.89,2.33,17.77,3.49,26.66ZM714.39,432.43c1.48-7.74-.39-22.02-2.71-23.87.93,8.22,1.82,16.04,2.71,23.87ZM389.2,718.34c-4.46,2.72-6.82,10.54-3.93,14.07,1.34-4.8,2.59-9.27,3.93-14.07ZM536.24,777.52c-8.18.92-16.37,1.83-24.55,2.75,8.51,1.82,16.64.35,24.55-2.75ZM678.44,445.79c-.33.02-.67.04-1,.06-.71,6.71-2.25,13.4-.96,20.17.49.01.97.03,1.46.04.17-6.76.34-13.52.51-20.28ZM444.61,738.09l-.16.63c10.33,2.89,20.67,5.77,31,8.66.06-.21.11-.42.17-.62-10.34-2.89-20.67-5.77-31.01-8.66ZM393.05,760.33c6.88,1.92,13.77,3.85,20.65,5.77.07-.26.14-.52.21-.78-6.58-3.07-13.31-5.58-20.86-4.99ZM434.15,776.65c-.04.67-.08,1.35-.13,2.02,6.24.51,12.48,1.03,18.72,1.54l.14-1.43c-6.24-.71-12.48-1.43-18.73-2.14ZM683.07,248.15c1.28,7.4,2.56,14.81,3.84,22.21.29-.05.57-.11.86-.16.77-7.79-1.9-14.93-4.7-22.05ZM597.53,669.17c-.08-.17-.17-.33-.25-.5-5.1,2.15-10.2,4.31-15.5,6.54,1.17,1.92,2.07,2.52,3.85,1.36,3.9-2.57,7.93-4.94,11.91-7.4ZM470.69,741.89c.09-.34.18-.68.26-1.02-7.44-1.6-14.88-3.19-22.32-4.79l-.3,1.5c7.45,1.44,14.9,2.88,22.35,4.32ZM556.52,483.96c-1.89,4.33-5.01,8.2-4.57,13.25,4.05-3.56,4.28-8.45,4.57-13.25ZM611.26,381.67c.18.39.35.78.53,1.18,1.8-.7,4.72-.97,5.19-2.19,1.42-3.64,1.87-7.65,2.7-11.52-.29-.07-.57-.15-.86-.22-.53,1.28-1.14,2.53-1.57,3.84-.99,3.04-1.06,6.62-5.06,7.71-.39.11-.62.79-.93,1.21ZM417.2,677.61c-2.27,5.12-4.16,9.4-6.4,14.46,5.08-1.97,6.93-6.56,6.4-14.46ZM673.87,639.78c.28.14.57.29.85.43,4.39-8.6,8.78-17.2,13.16-25.8-.33-.17-.66-.33-.98-.5-4.34,8.62-8.69,17.25-13.03,25.87ZM657.12,474.18c-4.46,5.86-7.98,11.49-7.32,18.78,2.37-6.09,4.74-12.17,7.32-18.78ZM601.98,590.53c-6.86,3.31-13.72,6.62-20.58,9.93l.41.84c7.31-2.33,13.96-6.02,20.17-10.78ZM704.07,299.67c.5-.14.99-.29,1.49-.43-2.03-6.92-4.07-13.84-6.1-20.76-.37.11-.74.21-1.11.32,1.91,6.96,3.82,13.91,5.72,20.87ZM662.47,481.47c-.22-.08-.45-.15-.67-.23-1.88,5.62-3.75,11.24-5.63,16.87.5.16,1.01.33,1.51.49,1.6-5.71,3.19-11.42,4.79-17.13ZM656.93,655.67c-.33-.16-.66-.33-.98-.49-1.01,2.46-1.98,4.94-3.05,7.38-1.03,2.37-2.22,4.67-3.23,7.04-.98,2.29-1.82,4.65-2.72,6.97.44.15.88.3,1.32.46,2.89-7.12,5.77-14.24,8.66-21.36ZM737.74,387.73c.56-.08,1.12-.17,1.68-.25-.94-5.96-1.88-11.91-2.81-17.87l-1.3.19c.81,5.98,1.62,11.95,2.42,17.93ZM587.72,436.81c-1.1,2.67-2.12,5.37-3.31,8-1.18,2.62-2.51,5.16-3.77,7.74.4.17.8.34,1.2.51,4.38-4.48,5.55-10.28,5.88-16.25ZM718.17,318.51c-.22.03-.45.06-.67.09.99,5.36,1.91,10.73,3.04,16.06.15.72,1.35,1.21,2.07,1.81.24-.23.48-.45.72-.68-1.72-5.76-3.45-11.52-5.17-17.28ZM419.66,687.17c-.27-.14-.53-.27-.8-.41-1.31,2.15-2.7,4.27-3.92,6.47-1.03,1.85-.54,2.88,1.85,2.28l-1.06,3.8c.46.1.91.2,1.37.3.85-4.15,1.71-8.3,2.56-12.44ZM571.21,449.9c5.61-4.64,7.81-10.8,8.12-17.42-2.62,5.63-5.37,11.52-8.12,17.42ZM383.66,770.15c.06.38.12.77.18,1.15,3.55,1.23,11.68-.43,13.6-3.46-5,.84-9.39,1.57-13.78,2.3ZM581.14,596.53c.22.4.45.79.67,1.19,6.38-3.97,12.77-7.94,19.15-11.91-.03-.06-.06-.11-.1-.17-6.57,3.63-13.15,7.26-19.72,10.89ZM693.76,418.92c-.35.04-.71.08-1.06.12.75,7.08,1.5,14.16,2.25,21.24.44-.05.89-.1,1.33-.15-.84-7.07-1.68-14.14-2.52-21.21ZM552.59,698.85c4.66.4,12.04-4.5,13.7-8.7-4.55,2.89-8.75,5.55-13.7,8.7ZM588.65,651.33c.08.28.17.56.25.84,6.47-1.86,12.94-3.71,19.41-5.57-.1-.33-.19-.65-.29-.98-6.41,2.06-13.35,2.31-19.37,5.71ZM704.77,530.47c.42.02.84.04,1.26.06.24-7.49.47-14.98.71-22.47-.39-.01-.77-.03-1.16-.04-.27,7.48-.54,14.96-.81,22.44ZM522.21,548.94c4.02-1.91,6.23-5.66,7.12-11.4-3.27,3.23-6.05,6.33-7.12,11.4ZM450.79,732.63c-.07.51-.14,1.01-.21,1.52,5.16.74,10.32,1.48,15.47,2.23.08-.54.15-1.07.23-1.61-5.16-.71-10.33-1.43-15.49-2.14ZM517.35,542.3c4.85-.12,9.66-5.3,10.7-11.02-3.25,3.34-6.97,7.18-10.7,11.02ZM576.7,447.58c.29.14.57.27.86.41,4.93-4.3,6.26-10.27,7.65-17.16-1.67,3.48-2.92,6.22-4.28,8.89-1.35,2.65-2.81,5.24-4.23,7.86ZM703.85,259.99c.49-6.7-2.65-21.47-5.35-25.45,1.76,8.39,3.51,16.71,5.35,25.45ZM519.7,736.89c.02.36.04.71.06,1.07,6.39.04,12.77.09,19.16.13-6.41-.77-12.79-2.71-19.22-1.2ZM748.54,377.13c-.43.07-.87.15-1.3.22.76,6.19,1.51,12.38,2.27,18.57.43-.05.85-.11,1.28-.16-.75-6.21-1.5-12.42-2.25-18.63ZM627.05,693.34c-6.11,1.47-16.57,8.17-18.01,11.49,5.97-3.81,11.7-7.46,18.01-11.49ZM559.89,670.96c-5.31,5.4-10.26,10.43-15.2,15.46,6.48-3.56,11.46-8.56,15.2-15.46ZM591.26,450.94c.48.05.96.1,1.43.15.45-4.27.9-8.54,1.35-12.8-.31-.04-.62-.07-.93-.11-.62,4.25-2.9,8.29-1.86,12.77ZM388.53,743.43c.06-.03.13-.07.19-.1.24-4.82.48-9.64.72-14.46-.36-.02-.72-.04-1.08-.06-.32,2.54-4.15,4.49-.72,7.72.41.38.14,1.45.24,2.19.2,1.57.43,3.14.65,4.7ZM704.66,326.02c-.38.07-.77.14-1.15.21,1.08,6.05,2.16,12.1,3.24,18.15.41-.08.81-.15,1.22-.23-1.1-6.04-2.21-12.09-3.31-18.13ZM558.36,756.1c3.82,2.02,9.09.4,11.22-3.08-4.1,1.12-7.66,2.1-11.22,3.08ZM481.16,595.58c.34.16.67.33,1.01.49,3.33-2.96,4.58-6.93,4.64-11.49-1.88,3.66-3.76,7.33-5.65,10.99ZM450.02,638.44c-2.07,3.01-4.77,5.13-4.15,9.05,3.6-1.67,4.54-3.69,4.15-9.05ZM644.4,673.79c.35.18.71.36,1.06.54,2.44-4.85,4.87-9.7,7.31-14.55-.31-.16-.61-.31-.92-.47-2.48,4.83-4.96,9.65-7.45,14.48ZM587.77,613.8c3.89-1.99,7.79-3.99,12.3-6.3-5.81.65-10.77,2.98-12.3,6.3ZM735.67,385.11c-1.88,4.87.21,8.96,2.57,12.99-.86-4.33-1.71-8.66-2.57-12.99ZM733.43,280.33c4.23,4.69,2.16,11.69,6.05,16.42-.89-4.23-1.95-8.39-2.57-12.62-.36-2.42-1.17-3.82-3.48-3.8ZM612.71,696.82c.21.29.43.58.64.87,4.33-3.14,8.66-6.29,12.99-9.43-.22-.29-.43-.58-.65-.87-4.33,3.15-8.66,6.29-12.98,9.44ZM676.61,341.35c-.37.12-.74.23-1.11.35,1.24,4.28,2.48,8.56,3.71,12.83.47-.14.95-.29,1.42-.43-1.34-4.25-2.68-8.5-4.02-12.75ZM700.25,297.85c.43-.09.85-.19,1.28-.28-1.03-4.63-2.06-9.26-3.09-13.89l-.98.22c.93,4.65,1.86,9.3,2.79,13.95ZM672.91,461.79c.53.07,1.06.13,1.58.2.29-4.35.57-8.71.86-13.06-.34-.02-.69-.05-1.03-.07-.47,4.31-.94,8.62-1.41,12.93ZM620.19,379.3c3.53-2.96,4.79-6.85,4.94-11.56-1.75,4.1-3.34,7.83-4.94,11.56ZM735.59,460.86c.43-.03.86-.06,1.28-.08-.16-4.39-.33-8.77-.49-13.16-.36.01-.73.03-1.09.04.1,4.4.2,8.8.3,13.2ZM718.99,408.92c-.49,0-.98.02-1.47.03-.35,3.73.16,7.45.66,11.16.28,0,.57,0,.85-.01-.01-3.73-.03-7.45-.04-11.18ZM445.18,783.48c-4.11-1.56-8.28-3.31-13.49-.83,5.02.31,9.26.57,13.49.83ZM668.21,487.32c-.35-.12-.7-.24-1.06-.36-1.17,2.83-2.34,5.65-3.5,8.48.5.18,1,.36,1.5.54,1.02-2.89,2.04-5.78,3.06-8.66ZM652.04,475.27c-.34-.14-.68-.28-1.01-.42-1.33,3.32-2.67,6.64-4,9.96.33.14.66.27,1,.41,1.34-3.32,2.68-6.63,4.02-9.95ZM486.33,599.11c.45.25.89.49,1.34.74.99-1.87,1.97-3.73,2.96-5.6-.36-.19-.72-.38-1.08-.57-1.07,1.81-2.14,3.63-3.22,5.44ZM559.25,496.69c.54.06,1.08.13,1.62.19.27-2.11.55-4.23.82-6.34-.37-.06-.74-.11-1.11-.17-.44,2.11-.89,4.22-1.33,6.32Z"/>
      <path class="cls-2" d="M376.83,684.78c.53,4.4,1.15,8.65,1.52,12.92.42,4.77-5.3,9.53-9.85,8.34-6.7-1.75-10.72-.19-14.2,5.79-3.85,6.62-6.03,13.7-4.69,21.43.42,2.42-.63,3.67-2.51,4.15-12.99,3.3-14.76,13.71-15.81,24.62-.02.21-.08.41-.18.95-5.21-1.04-9.35,1.13-12.97,4.69-3.52,3.46-5.3,7.65-6.27,12.52-.54,2.7-2.6,5.13-4.12,7.6-4.93,8.02-11.15,14.88-18.92,20.24-1.11.77-2.51,1.22-3.84,1.55-12.88,3.11-25.73,2.09-38.57-.08-.08-.33-.16-.67-.25-1,1.93-.58,3.85-1.6,5.8-1.65,4.09-.11,8.21.15,12.29.52,8.79.79,13.77-3.33,14.46-12.17.46-5.81.49-11.7,1.52-17.41,2.24-12.48,9.53-17.57,22.19-17.28,10.86.24,19-4.24,21.4-14.5.95-4.07.07-7.71-2.85-10.81-3.45-3.65-3.73-6.35-.16-10.02,5.25-5.39,11.24-9.81,18.9-11.29,8.42-1.62,12.93-6.13,14.52-14.47.12-.62.09-1.53.48-1.81,5.36-3.82,8.86-10.31,16.29-11.21,2.09-.25,4.1-1.12,5.83-1.61Z"/>
      <path class="cls-2" d="M640.95,179.87c-3.19-2.66-6.96-2.43-9.97-3.79-3.99-1.79-7.33-5.05-10.6-7.42,2.58,4.37,5.29,9.52,10.84,12.07,3.16,1.45,6.59,2.3,9.89,3.46.69.24,1.74.49,1.92,1,1.36,3.72,3.75,7.57,3.57,11.27-.69,14.02-2,28.04-6.61,41.48-.86,2.51-1.98,4.94-3.26,8.08-.77-2.05-1.57-3.44-1.8-4.92-1.32-8.8-7.01-14.97-12.99-20.68-3.83-3.66-6.72-7.77-8.24-12.57-2.03-6.45-3.55-13.12-4.62-19.8-1.07-6.7-1.64-13.53-1.85-20.32-.27-8.77,4.11-15.79,9.58-22.96.57,6.67,1.83,12.44,5.13,17.57,3.74,5.83,9.46,9.13,15.6,11.68,2.59,1.08,3.26,2.72,3.4,5.86Z"/>
      <path d="M300.63,341.71c-4.84,8.66-9.73,17.3-14.51,26-16.57,30.19-31.84,61.01-44.78,92.96-10.19,25.16-18.69,50.85-24.9,77.26-6.31,26.85-9.85,54.07-10.38,81.69-.55,28.73,1.92,57.13,9.58,84.85,2.84,10.27,7.03,20.22,11.2,30.07,5.01,11.83,5.66,23.57,1.71,35.79-1.92,5.96-3.21,12.14-4.5,18.28-1.24,5.91-.43,11.6,2.55,16.98.49.87.07,2.25.06,3.4-1.02-.52-2.45-.78-3-1.61-3.52-5.31-4.37-11.34-3.37-17.46,1.02-6.18,2.35-12.36,4.19-18.33,3.37-10.9,2.85-21.59-.71-32.23-3.29-9.85-7.28-19.49-10.14-29.46-9.66-33.62-12.85-68.01-10.92-102.86,1.23-22.07,4.37-43.91,9.19-65.52,6.99-31.28,16.66-61.7,29.11-91.21,11.33-26.86,24.46-52.83,39.48-77.82,6.29-10.46,12.87-20.75,19.32-31.11.26.11.53.23.79.34Z"/>
      <path d="M258.84,435.35c-2.88,7.92-5.58,15.92-8.68,23.76-12.69,32.08-23.91,64.58-30.32,98.6-5.69,30.15-8.07,60.47-5.2,91.09,2.02,21.52,7.4,42.12,16.44,61.82,4.26,9.27,7.33,19.02,6.92,29.45-.06,1.6.81,4.41-1.81,4.37-2.6-.04-1.82-2.7-1.73-4.43.42-9.02-2.3-17.34-5.88-25.39-15.38-34.52-19.84-70.89-18.03-108.2,1.19-24.61,5.35-48.84,11.79-72.63,7.5-27.72,15.99-55.12,27.66-81.44,2.58-5.82,5.43-11.52,8.15-17.28.24.09.47.18.71.27Z"/>
      <path d="M251.82,484.04c-2.59,7.2-5.28,14.37-7.74,21.62-7.21,21.24-13.5,42.73-17.35,64.88-2.84,16.36-4.36,32.84-3.9,49.41.54,19.3,3.27,38.34,8.35,57.02,4.22,15.5,9.8,30.47,16.52,45.05.46.99.22,2.29.31,3.45-1.01-.72-2.43-1.2-2.98-2.18-10.25-18.17-16.82-37.68-20.86-58.09-5.18-26.11-6-52.39-2.59-78.76,2.1-16.24,5.65-32.23,10.74-47.8,5.31-16.25,11.04-32.36,16.62-48.51.73-2.11,1.68-4.15,2.53-6.23l.34.13Z"/>
      <path d="M239.58,525.14c.14,1.05.33,1.54.25,1.99-5.99,33.1-12.04,66.19-13.63,99.91-2.56-9.62,7.64-95.51,13.38-101.91Z"/>
      <path d="M228.31,625.92c2.69,20.43,8.59,40.07,15.8,59.37-.55.14-1.1.28-1.66.42-10.35-18.48-14.89-38.45-14.14-59.8Z"/>
      <path d="M233.48,518.48c.29-1.94.24-4,.93-5.79,3.71-9.58,7.66-19.06,11.41-28.62,4.62-11.78,9.12-23.61,13.68-35.42.19-.49.4-.96.59-1.45.36.1.71.19,1.07.29-1.09,3.89-1.88,7.89-3.31,11.64-4.59,12.04-9.45,23.97-14.15,35.97-2.84,7.26-5.56,14.57-8.35,21.85-.23.59-.56,1.13-.85,1.7-.34-.06-.69-.12-1.03-.18Z"/>
      <path d="M251.24,534.89c-6.51,28.82-12.29,57.81-15.98,87.2,2.19-29.63,6.71-58.83,15.98-87.2Z"/>
      <path d="M243.41,532.11c-3.96,26.64-7.95,53.42-11.7,78.66-1.55-9.13,6.59-66.15,11.7-78.66Z"/>
      <path d="M399,273.6c-18.2,11.24-34.39,25.03-50.41,40.32.8-6.94,38.83-36.9,50.41-40.32Z"/>
      <path d="M442.09,503.22c-2.55,1.97-5.09,3.95-8.18,6.34-.26-4.53,2.99-5.57,4.69-8.2-3.36,1.69-6.71,3.39-10.56,5.32.07-3.78,2.28-4.96,4.49-5.39,2.6-.51,5.35-.14,8.03-.31,2.28-.15,4.65-.21,6.8-.87,2.75-.84,5.31-1.55,8.95.4-7.47.84-11.92,4.69-15.2,10.97-1.82-3.6.14-5.67.97-8.25Z"/>
      <path d="M273.06,468.42c1.13-23.12,7.39-45.09,13.89-64.08-4.23,19.51-9.06,41.79-13.89,64.08Z"/>
      <path d="M280.84,459.15c1.29-21.65,8.06-41.86,15.12-59.11-4.58,17.91-9.85,38.51-15.12,59.11Z"/>
      <path d="M382.48,248.07c12.78-15.02,29.03-25.34,44.2-33.23-13.5,10.15-28.85,21.69-44.2,33.23Z"/>
      <path d="M378.19,244.47c11.72-16.97,29.64-25.7,46.91-35.3-16.83,10.18-32.71,21.63-46.91,35.3Z"/>
      <path d="M243.03,604.67c1.68-18.18,3.71-36.29,10-53.55.32.06.64.13.95.19-3.65,17.79-7.3,35.57-10.95,53.36Z"/>
      <path d="M346.47,307.66c13.25-16.29,30.27-27.57,48.96-36.63-18.24,9.66-33.82,22.86-48.96,36.63Z"/>
      <path d="M356.36,321.94c11.61-15.19,26.05-27.4,41.81-38.16-13.94,12.72-27.88,25.44-41.81,38.16Z"/>
      <path d="M248.85,601.93c-.95-1.51,4.68-30.15,8.32-42.29,1.37,5.41-5.14,35.66-8.32,42.29Z"/>
      <path d="M260.63,503.22c-.81-15.34-.28-30.62,1.97-45.85.26,0,.52.02.79.02-.53,15.27-1.06,30.55-1.59,45.82-.39,0-.78,0-1.17,0Z"/>
      <path d="M278.6,409.5c-3.06,16.75-6.31,34.53-9.56,52.32.07-18.39,4.47-35.96,9.56-52.32Z"/>
      <path d="M353.01,315.06c10.52-12.81,23.63-22.64,38.23-31.42-13,10.68-25.61,21.05-38.23,31.42Z"/>
      <path d="M509.96,169.96c-11.87,6.58-23.02,14.53-36.14,18.69,11.06-8.15,23.77-13.08,36.14-18.69Z"/>
      <path d="M479.33,460.91c-4.47,2.11-7.24,4.65-8.22,8.8-.11.48-1.05.77-1.6,1.15-.29-.63-.92-1.34-.8-1.89.42-2.09,1.09-4.13,1.71-6.35-1.49.29-3.15.84-4.81.85-.99,0-1.98-.84-2.98-1.3.78-.75,1.54-2.12,2.33-2.13,4.5-.08,9.11-1.29,14.37.87Z"/>
      <path d="M386.34,250.68c7.75-11.87,19.58-18.78,31.8-25.21-5.45,4.04-11.11,7.84-16.31,12.2-5.17,4.33-9.87,9.2-14.77,13.84-.24-.28-.48-.55-.72-.83Z"/>
      <path d="M292.36,371.99c-4.84,10.8-10.2,21.32-16.54,31.27-.5-.28-1-.56-1.5-.84,4.82-10.81,11.69-20.47,18.04-30.43Z"/>
      <path d="M261.81,782.02c-1.22.4-2.55.85-3.88,1.29-.15-.21-.31-.43-.46-.64,1.52-2.53,3.04-5.05,4.73-7.87.58.86.96,1.45,1.56,2.33,1.4-3.1,2.7-5.99,4.34-9.63.56,1.26,1.14,1.91,1.01,2.37-1.16,4.16-2.4,8.29-3.75,12.39-.23.71-1.11,1.2-1.69,1.79-.59-.65-1.19-1.3-1.85-2.03Z"/>
      <path d="M474.15,185.14c9.65-8.77,21.35-13.22,33.57-16.56-11.19,5.52-22.38,11.04-33.57,16.56Z"/>
      <path d="M334.99,304.91c-7.11,7.68-14.26,15.29-23.61,20.34-.29-.34-.59-.69-.88-1.03,7.99-6.65,15.98-13.3,23.97-19.95l.52.64Z"/>
      <path d="M323.38,344.99c4.81-8.6,10.09-16.9,17.51-23.6-4.25,9.01-10.96,16.24-17.51,23.6Z"/>
      <path d="M392.55,295.14c-8.72,8.32-17.45,16.64-26.17,24.97-.2-.21-.4-.43-.6-.64,7.14-10.07,16.76-17.49,26.78-24.32Z"/>
      <path d="M312.33,344.02c2.97-9.66,11.35-15.07,17.33-22.37.25.19.5.38.75.58-2.51,3.15-5.12,6.23-7.49,9.48-2.26,3.1-4.19,6.45-6.44,9.57-.91,1.27-2.26,2.22-3.4,3.31-.25-.19-.5-.38-.75-.57Z"/>
      <path d="M358.66,336.63c-6.99,7.26-13.97,14.52-21.49,22.34,5.88-9.31,11.66-17.7,20.82-23.02.22.23.45.46.67.69Z"/>
      <path d="M316.14,348.84c-2.64,3.17-5.29,6.35-7.93,9.52.12.2.25.4.37.6,1.52-.98,3.05-1.95,4.49-2.88.02,2.06-1.01,3.36-3.39,4.44-2.6,1.19-4.74,3.36-7.05,5.08-.2-4.32,6.52-13.26,13.51-16.77Z"/>
      <path d="M475.47,477c-2.56-3.66-1.84-7.22,1.2-10.37,3.07-3.19,6.37-4.02,9.79-1.73-6.09,1.75-9.22,6-10.99,12.1Z"/>
      <path d="M347.71,298.28c10.11-10.5,22.35-17.83,35.45-23.87-6.09,3.78-12.29,7.4-18.23,11.4-5.88,3.96-11.49,8.3-17.22,12.47Z"/>
      <path d="M236.46,768.02c-1.91,6.83-3.82,13.66-5.95,21.29-.76-1.26-1.77-2.18-1.6-2.75,1.89-6.36,3.95-12.66,5.97-18.97.52.14,1.05.29,1.57.43Z"/>
      <path d="M362.36,338.9c-8.19,8.46-15.71,16.22-22.19,22.92,4.48-8.5,11.17-17.06,22.19-22.92Z"/>
      <path d="M335.35,310.71c-7.61,7.63-15.22,15.25-22.83,22.88-.37-.38-.74-.75-1.11-1.13,6.94-8.32,15.47-15.01,23.27-22.43.22.23.44.45.66.68Z"/>
      <path d="M258.12,476.72c.5,10.23,1.01,20.47,1.51,30.7l-.83.04c-1.99-10.16-2.42-20.39-1.48-30.7.27-.01.53-.03.8-.04Z"/>
      <path d="M472.45,199.19c-2.34,1.73-4.67,3.46-7.01,5.2.12.26.25.52.37.78,2.8-1.04,5.6-2.09,8.4-3.13.04.15.09.3.13.46-4.93,2.93-9.86,5.86-15.45,9.18,2.15-7.56,8.25-9.61,12.93-13.19.21.23.41.47.62.7Z"/>
      <path d="M300.25,405.6c-2.05,6.04-4.42,12.09-6.11,18.33-1.69,6.23-2.69,12.65-3.99,18.98-1.91-5.51,4.53-29.44,10.1-37.31Z"/>
      <path d="M254.35,488.27c.53,8.73,1.06,17.45,1.58,26.18-.42.03-.84.05-1.26.08-1.54-8.66-2.01-17.39-1.28-26.19.32-.02.64-.04.96-.06Z"/>
      <path d="M275.31,762.91c-1.28,6.02-2.55,12-3.89,18.3-3.9-3.02-1.73-11.53,3.89-18.3Z"/>
      <path d="M240.56,802.31c-.05-1.11-.49-2.41-.08-3.31,1.7-3.64,4.82-5.72,8.75-5.68,3.36.04,6.71.95,10.06,1.96-7.07-.3-14.42-1.85-17.76,7.16-.32-.05-.65-.09-.97-.14Z"/>
      <path d="M363.46,353.32c-6.07,6.37-12.15,12.74-18.22,19.11-.34-.32-.68-.65-1.02-.97,5.61-6.83,12.16-12.77,18.59-18.82.22.23.43.45.65.68Z"/>
      <path d="M361.87,349.19c-6.55,6-13.11,11.99-19.66,17.99,5.21-7.48,11.61-13.71,19.09-18.8.19.27.38.54.57.81Z"/>
      <path d="M502.13,434.22c-.17-1.09-.71-2.24-.43-3.12,1.15-3.54,3.53-6.18,6.86-7.85.51-.25,1.35.04,1.98.26.11.04.13,1.09-.13,1.39-2.56,2.96-5.18,5.86-8.28,9.32Z"/>
      <path d="M318.24,313.42c4.59-4.13,9.19-8.26,13.78-12.39.4.44.8.87,1.2,1.31-4.54,4.19-9.08,8.39-13.61,12.58-.46-.5-.91-1-1.37-1.5Z"/>
      <path d="M501.45,179.78c-6.93,3.98-13.85,7.96-20.78,11.94-.21-.38-.43-.75-.64-1.13,6.34-5,13.95-7.78,20.91-11.71.17.3.34.6.51.89Z"/>
      <path d="M249.76,497.45c1.22,8.83,2.44,17.67,3.66,26.5-.43.05-.86.11-1.29.16-1.12-8.85-2.25-17.7-3.37-26.54.33-.04.66-.08.99-.13Z"/>
      <path d="M247.63,509.02c1.24,5.81,2.48,11.61,3.73,17.42-2.98-2.11-4.6-9.52-4.53-17.12.27-.1.53-.2.8-.3Z"/>
      <path d="M261.36,428.46c3.19-6.08,6.33-12.07,9.47-18.06.19.09.38.19.56.28-1.39,3.3-2.79,6.59-4.16,9.89q-3.34,8.05-5.88,7.89Z"/>
      <path d="M503.74,166.79c-8.17,3.62-16.34,7.25-24.51,10.87-.15-.34-.3-.68-.44-1.02,8.19-3.57,16.38-7.14,24.57-10.71.12.29.25.57.37.86Z"/>
      <path d="M398.6,244.51c6.89-5.14,13.78-10.27,20.67-15.41.2.27.4.53.6.8-6.88,5.15-13.76,10.3-20.63,15.46-.21-.28-.43-.57-.64-.85Z"/>
      <path d="M505.93,421.62c-1.63,2.39-3.22,4.81-4.94,7.14-.28.38-1.25.63-1.65.44-.38-.19-.76-1.21-.57-1.58,1.39-2.83,3.11-5.41,5.94-6.92.41.31.81.62,1.22.93Z"/>
      <path d="M302.06,372.69c.61-.99,1.21-1.98,1.91-3.12-.59-.06-1.12-.1-2.68-.25,3.32-3.06,6.09-5.61,8.85-8.16l.64.52c-2.67,3.84-5.33,7.69-8,11.53-.24-.18-.48-.35-.72-.53Z"/>
      <path d="M350.87,337.55c-2.25,5.25-7.38,7.34-12.05,9.91,3.78-3.57,7.56-7.13,11.34-10.7.24.26.47.52.71.79Z"/>
      <path d="M298.51,380.03c-2.25,4.05-4.3,7.75-6.37,11.49-1.86-2.5,1.54-8.83,6.37-11.49Z"/>
      <path d="M365.84,280c6.69-3.6,13.37-7.19,19.49-10.48-5.91,3.71-12.35,7.75-18.79,11.8-.23-.44-.47-.88-.7-1.31Z"/>
      <path d="M406.31,241.86c4.94-2.41,9.87-4.83,14.81-7.24.17.29.34.59.51.88-4.69,2.88-9.38,5.76-14.06,8.63-.42-.76-.84-1.52-1.26-2.28Z"/>
      <path d="M458.21,202.26c4.67-1.98,9.35-3.96,14.02-5.94.14.32.29.65.43.97-4.59,2.16-9.19,4.32-13.78,6.48-.22-.51-.45-1.01-.67-1.52Z"/>
      <path d="M233.99,806.42c-4.22-2.68-4.91-6.76-2.81-10.73.91,3.5,1.86,7.12,2.81,10.73Z"/>
      <path d="M238.06,748.72c.66,3.95-.1,6.97-1,10.07-2.29-1.32-2-4.97,1-10.07Z"/>
      <path d="M243.69,514.58c.95,4.4,1.89,8.8,2.84,13.19-.46.09-.91.19-1.37.28-1.81-4.2-1.78-8.78-2.24-13.26.26-.07.52-.14.78-.22Z"/>
      <path d="M260.7,576.05c-.78,4.29-1.56,8.59-2.34,12.88-.33-.06-.66-.12-.98-.17-.88-4.59,1.23-8.67,3.32-12.71Z"/>
      <path d="M267.6,436.14c-.92,4.71-1.79,9.14-2.67,13.63-1.3-4.89-.26-9.3,2.67-13.63Z"/>
      <path d="M422.02,498.36c1.94.54,3.88,1.08,5.83,1.63-.09.3-.17.59-.26.89-1.95-.55-3.91-1.09-5.86-1.64.1-.29.2-.59.29-.88Z"/>
      <path d="M504,420.11c-1.88.02-3.77.04-5.65.05-.02-.49-.04-.98-.06-1.46,1.89-.12,3.78-.24,5.66-.36.02.59.03,1.18.05,1.77Z"/>
      <path d="M486.85,805.69c-8.13,2.1-16.18,4.57-24.39,6.22-22.04,4.45-44.16,8.49-66.22,12.82-22.53,4.42-44.14,11.48-64.51,22.28-7.68,4.07-15.85,7.13-24.84,6.36-2.23-.19-4.45-.84-6.6-1.53-.57-.18-.84-1.3-1.24-1.98.6-.29,1.31-.95,1.78-.82,10.84,3.09,20.38-.96,29.5-5.82,24.02-12.8,49.85-19.5,76.53-23.64,18.37-2.85,36.75-5.72,55.06-8.94,7.34-1.29,14.51-3.52,21.76-5.31.97-.24,1.95-.45,2.93-.67.08.34.17.69.25,1.03Z"/>
      <path d="M319.28,836.5c9.4-.34,17.04-4.89,24.61-9.55,11.68-7.19,24.62-10.47,38-12.43,20.77-3.05,41.54-6.08,62.31-9.1,2-.29,4.02-.45,6.14-.07-5.95,1.08-11.9,2.18-17.86,3.23-19.39,3.39-38.8,6.65-58.17,10.18-9.7,1.77-18.34,6.36-26.99,10.9-5.82,3.05-11.77,5.92-17.86,8.37-3.34,1.35-7,.95-10.18-1.53Z"/>
      <path d="M681.26,567.77c.1-20.16.2-40.07.29-59.98.44,0,.88,0,1.32,0-.06,18.47-.13,36.94-.19,55.4,3.21-17.86,2.62-35.9,3.7-53.9.17,8.02.53,16.03.45,24.05-.09,9.2-.67,18.38-.82,27.58-.05,3.31-1.12,5.59-4.75,6.85Z"/>
      <path d="M733.39,351.32c-1.47-3.59-3.47-7.06-4.31-10.8-2.83-12.56-5.25-25.21-7.81-37.84-.14-.68-.14-1.39.44-2.2,2.45,10.35,4.91,20.71,7.36,31.06.22-.04.43-.09.65-.13-2.29-11-4.58-21.99-6.88-32.99,3.79,6.78,12.14,47.08,10.55,52.9Z"/>
      <path d="M710.15,177.13c3.07,4.64,6.13,9.27,9.2,13.91.24-.14.48-.28.73-.42-4.44-7.93-8.87-15.86-13.31-23.79.03-.06.07-.12.1-.19,2.92,3.87,6.22,7.52,8.65,11.68,2.43,4.16,4.99,8.67,5.69,13.3.85,5.65,3.36,10.66,4.45,16.13.91,4.55,1.98,9.07,2.93,13.34-2.68-2.34-8.54-14.49-11.06-24,1.44,3.09,2.88,6.19,4.31,9.28.39-.21.79-.43,1.18-.64-2.96-10.13-8.25-19.19-13.69-28.16.28-.15.55-.29.83-.44Z"/>
      <path d="M692.45,553.16c.91-11.84,1.95-23.67,2.67-35.52.34-5.56.07-11.16.08-16.74.26,0,.53-.02.79-.03.2,8.75.39,17.51.59,26.26.23,0,.47.02.7.02.32-7.02.64-14.04.98-21.63,2.74,12.76-1.03,46.81-5.71,51.34-.07-1.43-.12-2.63-.18-3.84l.06.14Z"/>
      <path d="M471.75,754.01c-13-3.78-26.58-5.53-38.97-11.87.83.09,1.67.14,2.49.27.85.13,1.69.33,3.5.7-1.42-1.1-2.14-1.66-2.87-2.22,11.9.53,22.82,5,33.99,8.47-6.15-1.23-12.29-2.46-18.44-3.69-.12.45-.23.91-.35,1.36,7,1.96,14,3.91,21,5.87-.12.37-.23.75-.35,1.12Z"/>
      <path d="M303.13,811.71c-2.23,5.97-6.15,10.53-11.62,13.79-2.14,1.27-4.26,2.58-6.31,3.98-3.72,2.54-6.14,6-7.26,10.39-.84,3.3-1.82,6.56-2.88,10.37-.94-.96-1.29-1.15-1.35-1.41-1.66-6.97,3.4-19.06,9.76-21.73,8.02-3.37,14.74-8.09,19.66-15.38Z"/>
      <path d="M533.89,764.58c-15.64.98-30.51,8.13-47.77,5.17,1.27-1.06,1.91-2.06,2.64-2.14,14.08-1.44,28.17-2.77,42.25-4.1.93-.09,1.88.03,2.81.06.02.34.04.68.06,1.02Z"/>
      <path d="M686.86,350.72c-.41-.61-.81-1.22-1.49-2.24.34,2.56.62,4.69.91,6.82-.27.07-.54.13-.81.2-.75-2.14-1.5-4.27-2.4-6.85-.46,1.65-.8,2.86-1.23,4.4-1.36-6.73-2.65-13.07-3.82-18.87.16.19.81,1,1.92,2.37-.69-2.65-1.19-4.58-1.7-6.5.22-.09.43-.18.65-.27.91,2.19,1.82,4.38,2.73,6.57l.46-.13c-.77-3.72-1.54-7.45-2.31-11.17l.87-.23c2.46,8.5,4.92,17,7.38,25.49-.38.14-.76.27-1.14.41Z"/>
      <path d="M692.38,553.02c-.93,2.7.23,6.21-2.46,7.75.24-19.78.49-39.83.73-59.87.07-.02.13-.04.2-.07.47,4.64,1.29,9.28,1.35,13.93.16,11.97-.02,23.94-.04,35.92,0,.82.18,1.65.28,2.48,0,0-.06-.13-.06-.13Z"/>
      <path d="M493.63,756.91c1.61-.53,3.19-1.44,4.82-1.53,11.55-.68,23.12-1.15,34.68-1.79,3.84-.21,7.65-.72,11.52-.66-16.76,3.19-33.64,5.02-50.67,5.53-.12-.52-.23-1.03-.35-1.55Z"/>
      <path d="M489.5,762.69c1.39-.55,2.74-1.5,4.16-1.6,12.59-.91,25.19-1.68,37.78-2.48,1.97-.12,3.95-.17,5.92-.25.02.34.04.68.07,1.03-15.77,1.66-31.55,3.32-47.32,4.98-.21-.56-.41-1.11-.62-1.67Z"/>
      <path d="M498.93,751.79c.9-.41,1.78-1.1,2.72-1.18,15.27-1.34,30.54-2.6,45.82-3.85.39-.03.8.21,1.22.95-16.46,1.8-32.91,3.6-49.37,5.4-.13-.44-.26-.89-.39-1.33Z"/>
      <path d="M668.15,569.91c1.33-17.56,2.66-35.12,4.03-53.14,2.08,7.35-.57,48.58-4.03,53.14Z"/>
      <path d="M700.13,392.11c4.35,19.72,8.69,39.62,7.68,60.26-2.56-20.09-5.12-40.17-7.68-60.26Z"/>
      <path d="M696.3,393.93c3.4,7.37,8.6,53.06,6.94,58.82-2.35-19.95-4.65-39.38-6.94-58.82Z"/>
      <path d="M718.52,497.01c-.54,1.95-.93,3.33-1.32,4.71-.21-.01-.42-.02-.63-.03-.14-4.93-.28-9.86-.42-14.8l.36-.13c.42,1.01.85,2.01,1.59,3.79-.18-6.8-.33-12.79-.49-18.77,2.57,6.24,4.52,28.9,2.67,34.47-.55-2.9-1.11-5.81-1.76-9.24Z"/>
      <path d="M598.13,733.16c-3.35,1.45-7.51,2.11-9.88,4.53-4.44,4.53-10.36,4.14-15.48,6.22-.93.38-2.12.11-3.19.14-.07-.31-.13-.63-.2-.94,1.08-.55,2.16-1.09,3.44-1.74-.35-.41-.7-.82-1.6-1.86,9.14-2.34,17.94-4.59,26.74-6.83l.18.48Z"/>
      <path d="M469.25,593.49c6.89-9.59,14.02-19.03,16.62-30.89-.45,13.35-7.57,28.59-16.62,30.89Z"/>
      <path d="M526.48,767.74c-3.7,4.76-34.64,9.79-38.29,6.21,12.72-2.06,25.73-4.17,38.29-6.21Z"/>
      <path d="M429.91,635.41c12.31-2.21,18.86-10.57,18.49-23.36-.08-2.66-.66-5.57,1.77-8.18-.72,7.31-1.16,14.24-2.15,21.09-.79,5.46-4.71,8.86-9.29,11.41-3.37,1.88-6.27,1.44-8.82-.95Z"/>
      <path d="M735.49,333.6c.95,4.69,1.9,9.37,2.85,14.06-.5.11-1,.22-1.5.33-3.79-15.74-7.57-31.49-11.36-47.23.23-.06.46-.12.69-.18,1.84,5.9,3.68,11.8,5.52,17.71,1.27,5.1,2.54,10.21,3.81,15.31Z"/>
      <path d="M735.49,333.6c-1.27-5.1-2.54-10.21-3.81-15.31-1.45-6.29-2.9-12.59-4.35-18.88-.72-3.13-1.45-6.27-2.17-9.4.34-.08.67-.17,1.01-.25,4.26,15.81,8.52,31.62,12.78,47.43-.3.08-.6.16-.9.24-.85-1.27-1.71-2.55-2.56-3.82Z"/>
      <path d="M525.42,515.74c2.56,7.27.5,13.53-4.25,19.08-2.14,2.5-4.65,4.75-9.18,3.68,1.07-1.37,1.64-2.56,2.58-3.24,6.68-4.81,10.54-11.14,10.85-19.52Z"/>
      <path d="M343.19,816.78c10.5-6,21.81-7.53,33.5-10.82-6.43,4.78-28.76,12.05-33.5,10.82Z"/>
      <path d="M678.33,513.21c.11.36.34.72.33,1.07-.74,17.93-1.49,35.85-2.3,53.78-.04.87-.69,1.71-1.6,2.26,1.04-19.02,2.07-38.03,3.11-57.05.16-.02.32-.04.47-.05Z"/>
      <path d="M440.63,757.19c-5.13-3.62-11.75-4.99-15.74-10.33.19-.41.39-.83.58-1.24,8.97,3.6,17.93,7.2,26.9,10.8-.08.27-.16.54-.24.8-2.96-.83-5.94-1.58-8.88-2.5-3.08-.97-6.1-2.09-9.39-2.74,2.42,1.5,4.84,3,7.26,4.5-.16.24-.33.47-.49.71Z"/>
      <path d="M658.55,650.39c6.46-12.85,12.93-25.69,19.39-38.54-4.08,14.02-9.89,27.19-19.39,38.54Z"/>
      <path d="M530.15,784.42c-5.13.37-10.26.74-15.39,1.11-.02.16-.03.32-.05.48.95.27,1.91.53,2.86.8-.03.32-.05.64-.08.97-4.58.04-9.17.07-13.75.11-.19-.4-.37-.8-.56-1.2.76-.77,1.4-2.02,2.29-2.22,8.2-1.85,16.47-1.43,24.74-.93-.02.3-.04.59-.07.89Z"/>
      <path d="M508.33,743.93c13.7-2.62,27.46-1.74,41.23-.33-13.74.5-27.49.99-41.23,1.49,0-.39,0-.77,0-1.16Z"/>
      <path d="M571.5,735.78c12.31-3.57,24.61-7.14,36.92-10.72.1.33.19.65.29.98-12.06,4.46-24.12,8.9-36.75,11.48-.15-.58-.31-1.16-.46-1.74Z"/>
      <path d="M570.6,759.23c-4.49,1.74-8.99,3.49-13.48,5.23l.08.4c2.2-.09,4.4-.19,6.6-.28.05.3.09.6.14.9-1.55.29-3.15.43-4.65.89-3.8,1.17-7.54,2.53-11.34,3.72-1.14.36-2.38.42-3.57.62-.09-.32-.18-.64-.27-.96.87-.46,1.72-1.29,2.6-1.31,3.42-.08,4.97-2.58,6.82-4.78.4-.48,1-.9,1.59-1.08,5.01-1.51,10.05-2.96,15.08-4.43.14.36.28.72.41,1.08Z"/>
      <path d="M688.89,344.61c-1.72-8.01-3.44-16.03-5.15-24.04.18-.08.37-.15.55-.23,1.36,3.61,2.72,7.22,4.08,10.82l.48-.09c-.96-4.83-1.93-9.67-2.89-14.5,2.41,6.56,6.37,12.73,3.75,20.35-.78,2.26-.01,5.04.05,7.58-.28.03-.57.07-.85.1Z"/>
      <path d="M737.1,311.17c.86,4.71,1.71,9.43,2.57,14.14-.4.08-.8.16-1.2.24-3.3-13.4-6.59-26.79-9.89-40.19.27-.08.55-.16.82-.24,2.49,7.78,4.97,15.57,7.46,23.35.08.89.16,1.79.23,2.69Z"/>
      <path d="M666.46,644.91c5.66-11.71,11.34-23.44,16.83-34.79.57,4.95-11.01,31.14-16.83,34.79Z"/>
      <path d="M702.76,500.67c1.41,14.12,1.77,28.37-2.45,42.42.82-14.14,1.63-28.28,2.45-42.42Z"/>
      <path d="M673.83,613.5c-6.56,13.04-13.13,26.08-19.69,39.12-.55-.28-1.1-.56-1.64-.84,6.74-12.95,13.47-25.9,20.21-38.86.38.19.75.38,1.13.57Z"/>
      <path d="M688.12,436.82c1.43,11.68.82,23.13-4.25,34.06,1.42-11.35,2.84-22.7,4.25-34.06Z"/>
      <path d="M624.04,705.5c-12.94,8.54-26.65,15.93-42.1,19.66,14.09-6.58,28.18-13.16,42.1-19.66Z"/>
      <path d="M690.09,237.87c5.06,11.57,8.28,23.53,7.46,36.36-2.49-12.12-4.97-24.24-7.46-36.36Z"/>
      <path d="M691.85,229.36c5.36,11.04,9.9,23.56,9.15,37.44-3.14-12.83-6.27-25.67-9.15-37.44Z"/>
      <path d="M590.28,716.76c12.24-5.54,24.48-11.08,36.61-16.57-11.08,7.73-22.72,14.58-36.61,16.57Z"/>
      <path d="M687.41,239.66c2.61,12.6,5.22,25.2,7.82,37.79-.42.09-.84.17-1.27.26-3.98-12.32-5.32-25.19-7.53-37.88.32-.06.65-.12.97-.18Z"/>
      <path d="M572.24,730.41c13.61-1.78,25.65-8.42,38.78-11.98-1.36.63-2.71,1.28-4.07,1.89-1.48.66-2.96,1.33-4.46,1.94-6.8,2.76-13.52,5.75-20.45,8.15-3.01,1.05-6.43.9-9.66,1.29-.05-.43-.1-.86-.14-1.29Z"/>
      <path d="M695.99,407.93c1.8,13.77,3.6,27.53,5.4,41.3-.54.07-1.09.14-1.63.21-1.66-13.79-3.31-27.59-4.97-41.38.4-.04.8-.08,1.19-.12Z"/>
      <path d="M711.32,441.66c-1.1-11.41-2.19-22.82-3.29-34.29,2.71,1.85,5.52,28.05,3.29,34.29Z"/>
      <path d="M698.72,321.71c3.06,9.48,6.69,18.88,6.82,29.11-3.91-9.29-5.47-19.15-6.82-29.11Z"/>
      <path d="M695.19,337.87c1.66,7.65,3.32,15.3,4.98,22.95-.41.11-.83.23-1.24.34-.58-1.63-1.17-3.27-1.75-4.9-.14,0-.28,0-.42,0l.04,4.02c-.33.03-.67.07-1,.1-.42-3.73-1.04-7.46-1.22-11.21-.18-3.71.09-7.44.17-11.16.14-.04.29-.09.43-.13Z"/>
      <path d="M551.11,475.16c2.21,6.01-3.16,18.09-9.34,18.55,3.26-6.47,6.45-12.82,9.34-18.55Z"/>
      <path d="M406.74,685.33c3.36-6.04,6.53-11.75,9.8-17.64,1.06,7.8-3.74,16.84-9.8,17.64Z"/>
      <path d="M695.43,328.83c3.56,5.91,7.26,25.4,5.82,31.78-1.94-10.59-3.88-21.18-5.82-31.78Z"/>
      <path d="M487.79,574.73c-.07.92.13,1.97-.24,2.74-2.26,4.66-4.51,9.33-7.05,13.84-1.22,2.17-3.23,3.44-6.41,1.77,7.07-4.43,9.41-11.77,12.7-18.48.33.04.67.08,1,.12Z"/>
      <path d="M449.82,628.18c1.26,8.29-5.6,17.18-12.31,15.37,4.61-4.99,10.95-8.26,12.31-15.37Z"/>
      <path d="M683.49,441.37c.5,10.05-.05,19.93-5.03,29.08,1.68-9.69,3.35-19.39,5.03-29.08Z"/>
      <path d="M737.1,311.17c-.08-.9-.15-1.8-.23-2.69-1.44-6.63-2.88-13.26-4.34-19.9-.22-1.02-.52-2.02-.91-3.54,3.83,4.05,8.19,22.05,7.45,29.41-.65-1.07-1.31-2.18-1.97-3.28Z"/>
      <path d="M496.85,717.54c6.29-5.12,14.34-6.77,21.56-10.08-6.69,4.32-13.06,9.26-20.78,11.61-.26-.51-.52-1.01-.78-1.52Z"/>
      <path d="M720.03,308.54c2.36,9.95,4.72,19.9,7.08,29.86-.17.13-.34.27-.51.4-.61-.7-1.6-1.32-1.77-2.11-2.03-9.26-3.93-18.55-5.87-27.83.36-.11.72-.21,1.07-.32Z"/>
      <path d="M606.28,658.89c-8.7,3.56-17.22,7.04-26.61,10.88.81-1.38,1.1-2.6,1.74-2.84,8-2.94,16.04-5.74,24.09-8.55.11-.04.33.2.79.51Z"/>
      <path d="M580.26,673.88c.56-1.08.79-2.45,1.58-2.93,6.7-4.06,13.9-6.64,21.49-6.94-7.34,3.14-14.91,6.38-23.06,9.87Z"/>
      <path d="M494.73,712.44c5.91-4.57,12.69-7.53,19.29-10.81.28.51.55,1.01.83,1.52-6.42,3.6-12.84,7.2-19.26,10.8-.29-.5-.57-1-.86-1.51Z"/>
      <path d="M611,650.97c-9.14,2.99-18.27,5.98-27.41,8.97-.19-.32-.39-.64-.58-.96.58-.58,1.07-1.49,1.76-1.69,8.58-2.53,17.19-4.96,25.79-7.42l.44,1.11Z"/>
      <path d="M667.39,539.98c-.94,9.47-1.88,18.93-2.87,28.94-1.77-1.89.09-22.86,1.97-29.08.3.05.6.1.91.14Z"/>
      <path d="M517.89,714.58c-5.98,4.93-11.12,10.96-18.59,13.93,4.59-6.75,12.02-9.77,18.59-13.93Z"/>
      <path d="M661.9,652.31c-1.59,8.44-4.55,16.32-10.22,22.89-.25-.12-.5-.24-.75-.36,3.66-7.51,7.32-15.02,10.98-22.53Z"/>
      <path d="M742.54,369.35c-.09,3.72-.17,7.43-.26,11.15-.33.02-.67.03-1,.05-1.08-8.05-2.15-16.11-3.23-24.16.07-.09.15-.17.22-.26.81,2.16,1.71,4.29,2.42,6.49.73,2.25,1.27,4.55,1.89,6.83l-.04-.1Z"/>
      <path d="M456.73,754.93c-8.34-2.76-16.69-5.51-25.03-8.29-.23-.08-.35-.48-.86-1.21,9.76.94,17.67,5.83,26.25,8.69-.12.27-.25.54-.37.81Z"/>
      <path d="M564.85,682.59c-5.55,5.07-11.03,10.09-16.99,15.54.55-4.77,13.02-15.68,16.99-15.54Z"/>
      <path d="M580.84,663.9c.65-.77,1.16-1.98,1.97-2.24,7.21-2.28,14.47-4.4,21.73-6.55.38-.11.8-.07,2.15-.18-9,3.48-17.11,6.62-25.22,9.76-.21-.26-.42-.53-.63-.79Z"/>
      <path d="M562.94,676.09c-5.65,5.53-11.3,11.05-16.96,16.58-.39-.4-.77-.79-1.16-1.19,5.04-6.16,11.5-10.86,17.23-16.3.29.3.59.61.88.91Z"/>
      <path d="M580.94,611.92c7.45-3.91,14.89-7.82,19.27-10.12-3.85,3.21-10.33,8.79-19.27,10.12Z"/>
      <path d="M405.86,766.89c-6.96-.51-13.13.18-19.58-2.08,3.36-1.95,16.96-.68,19.58,2.08Z"/>
      <path d="M598.85,598.78c-3.34,3.2-10.51,8.27-17.66,9.55,5.97-3.23,13.63-7.37,17.66-9.55Z"/>
      <path d="M701.27,273.34c4.01,5.11,6.92,17.57,5.2,22.87-1.67-7.35-3.35-14.71-5.2-22.87Z"/>
      <path d="M652.09,641.91c4.26-7.89,8.52-15.79,12.78-23.68-2.98,8.57-5.93,17.16-12.04,24.07-.25-.13-.49-.26-.74-.39Z"/>
      <path d="M660.79,478.45c-2.24,5.92-4.49,11.85-6.73,17.77-.45-.17-.91-.34-1.36-.52.73-6.5,4.07-12.02,6.93-17.71.38.15.77.31,1.15.46Z"/>
      <path d="M708.12,289.98c-1.16-8.89-2.33-17.77-3.49-26.66.49-.07.97-.13,1.46-.2,1.11,8.85,2.23,17.71,3.34,26.56-.43.1-.87.2-1.3.3Z"/>
      <path d="M714.39,432.43c-.89-7.83-1.78-15.65-2.71-23.87,2.32,1.85,4.19,16.13,2.71,23.87Z"/>
      <path d="M389.2,718.34c-1.34,4.8-2.59,9.27-3.93,14.07-2.89-3.52-.53-11.34,3.93-14.07Z"/>
      <path d="M536.24,777.52c-7.91,3.1-16.04,4.57-24.55,2.75,8.18-.92,16.37-1.83,24.55-2.75Z"/>
      <path d="M678.44,445.79c-.17,6.76-.34,13.52-.51,20.28-.49-.01-.97-.03-1.46-.04-1.29-6.77.25-13.46.96-20.17.33-.02.67-.04,1-.06Z"/>
      <path d="M444.61,738.09c10.34,2.89,20.67,5.77,31.01,8.66-.06.21-.11.42-.17.62-10.33-2.89-20.67-5.77-31-8.66l.16-.63Z"/>
      <path d="M393.05,760.33c7.55-.58,14.28,1.92,20.86,4.99-.07.26-.14.52-.21.78-6.88-1.92-13.77-3.85-20.65-5.77Z"/>
      <path d="M434.15,776.65c6.24.71,12.48,1.43,18.73,2.14l-.14,1.43c-6.24-.51-12.48-1.03-18.72-1.54.04-.67.08-1.35.13-2.02Z"/>
      <path d="M683.07,248.15c2.8,7.12,5.47,14.26,4.7,22.05-.29.05-.57.11-.86.16-1.28-7.4-2.56-14.81-3.84-22.21Z"/>
      <path d="M597.53,669.17c-3.98,2.45-8.01,4.83-11.91,7.4-1.77,1.17-2.68.56-3.85-1.36,5.29-2.23,10.39-4.39,15.5-6.54.08.17.17.33.25.5Z"/>
      <path d="M470.69,741.89c-7.45-1.44-14.9-2.88-22.35-4.32l.3-1.5c7.44,1.6,14.88,3.19,22.32,4.79-.09.34-.18.68-.26,1.02Z"/>
      <path d="M556.52,483.96c-.3,4.8-.52,9.69-4.57,13.25-.43-5.04,2.68-8.92,4.57-13.25Z"/>
      <path d="M611.26,381.67c.31-.42.54-1.1.93-1.21,4-1.09,4.08-4.67,5.06-7.71.43-1.31,1.04-2.56,1.57-3.84.29.07.57.15.86.22-.83,3.87-1.29,7.88-2.7,11.52-.47,1.22-3.39,1.49-5.19,2.19-.18-.39-.35-.78-.53-1.18Z"/>
      <path d="M417.2,677.61c.53,7.89-1.33,12.49-6.4,14.46,2.24-5.06,4.13-9.33,6.4-14.46Z"/>
      <path d="M657.12,474.18c-2.58,6.61-4.95,12.7-7.32,18.78-.67-7.3,2.86-12.92,7.32-18.78Z"/>
      <path d="M601.98,590.53c-6.21,4.76-12.87,8.45-20.17,10.78l-.41-.84c6.86-3.31,13.72-6.62,20.58-9.93Z"/>
      <path d="M704.07,299.67c-1.91-6.96-3.82-13.91-5.72-20.87.37-.11.74-.21,1.11-.32,2.03,6.92,4.07,13.84,6.1,20.76-.5.14-.99.29-1.49.43Z"/>
      <path d="M662.47,481.47c-1.6,5.71-3.19,11.42-4.79,17.13-.5-.16-1.01-.33-1.51-.49,1.88-5.62,3.75-11.24,5.63-16.87.22.08.45.15.67.23Z"/>
      <path d="M656.93,655.67c-2.89,7.12-5.77,14.24-8.66,21.36-.44-.15-.88-.3-1.32-.46.9-2.33,1.75-4.68,2.72-6.97,1.01-2.37,2.2-4.68,3.23-7.04,1.06-2.44,2.03-4.92,3.05-7.38.33.16.66.33.98.49Z"/>
      <path d="M737.74,387.73c-.81-5.98-1.62-11.95-2.42-17.93l1.3-.19c.94,5.96,1.88,11.91,2.81,17.87-.56.08-1.12.17-1.68.25Z"/>
      <path d="M587.72,436.81c-.33,5.97-1.5,11.77-5.88,16.25-.4-.17-.8-.34-1.2-.51,1.26-2.58,2.6-5.12,3.77-7.74,1.18-2.63,2.21-5.33,3.31-8Z"/>
      <path d="M718.17,318.51c1.72,5.76,3.45,11.52,5.17,17.28-.24.23-.48.45-.72.68-.72-.6-1.92-1.09-2.07-1.81-1.13-5.33-2.05-10.7-3.04-16.06.22-.03.45-.06.67-.09Z"/>
      <path d="M419.66,687.17c-.85,4.15-1.71,8.3-2.56,12.44-.46-.1-.91-.2-1.37-.3l1.06-3.8c-2.39.6-2.88-.43-1.85-2.28,1.23-2.2,2.61-4.32,3.92-6.47.27.14.53.27.8.41Z"/>
      <path d="M571.21,449.9c2.75-5.9,5.5-11.79,8.12-17.42-.31,6.62-2.51,12.78-8.12,17.42Z"/>
      <path d="M383.66,770.15c4.39-.73,8.78-1.47,13.78-2.3-1.92,3.03-10.05,4.69-13.6,3.46-.06-.38-.12-.77-.18-1.15Z"/>
      <path d="M581.14,596.53c6.57-3.63,13.15-7.26,19.72-10.89.03.06.06.11.1.17-6.38,3.97-12.77,7.94-19.15,11.91-.22-.4-.45-.79-.67-1.19Z"/>
      <path d="M693.76,418.92c.84,7.07,1.68,14.14,2.52,21.21-.44.05-.89.1-1.33.15-.75-7.08-1.5-14.16-2.25-21.24.35-.04.71-.08,1.06-.12Z"/>
      <path d="M552.59,698.85c4.95-3.14,9.15-5.81,13.7-8.7-1.66,4.2-9.03,9.1-13.7,8.7Z"/>
      <path d="M588.65,651.33c6.01-3.4,12.96-3.65,19.37-5.71.1.33.19.65.29.98-6.47,1.86-12.94,3.71-19.41,5.57-.08-.28-.17-.56-.25-.84Z"/>
      <path d="M704.77,530.47c.27-7.48.54-14.96.81-22.44.39.01.77.03,1.16.04-.24,7.49-.47,14.98-.71,22.47-.42-.02-.84-.04-1.26-.06Z"/>
      <path d="M522.21,548.94c1.07-5.07,3.84-8.17,7.12-11.4-.88,5.74-3.1,9.5-7.12,11.4Z"/>
      <path d="M450.79,732.63c5.16.71,10.33,1.43,15.49,2.14-.08.54-.15,1.07-.23,1.61-5.16-.74-10.32-1.48-15.47-2.23.07-.51.14-1.01.21-1.52Z"/>
      <path d="M517.35,542.3c3.73-3.84,7.46-7.68,10.7-11.02-1.05,5.72-5.85,10.9-10.7,11.02Z"/>
      <path d="M576.7,447.58c1.41-2.62,2.88-5.21,4.23-7.86,1.36-2.67,2.61-5.41,4.28-8.89-1.39,6.89-2.72,12.86-7.65,17.16-.29-.14-.57-.27-.86-.41Z"/>
      <path d="M703.85,259.99c-1.84-8.75-3.59-17.06-5.35-25.45,2.7,3.98,5.84,18.76,5.35,25.45Z"/>
      <path d="M519.7,736.89c6.43-1.51,12.82.42,19.22,1.2-6.39-.04-12.77-.09-19.16-.13-.02-.36-.04-.71-.06-1.07Z"/>
      <path d="M627.05,693.34c-6.31,4.02-12.04,7.68-18.01,11.49,1.44-3.32,11.89-10.02,18.01-11.49Z"/>
      <path d="M559.89,670.96c-3.74,6.9-8.72,11.9-15.2,15.46,4.94-5.03,9.89-10.06,15.2-15.46Z"/>
      <path d="M591.26,450.94c-1.04-4.47,1.23-8.51,1.86-12.77.31.04.62.07.93.11-.45,4.27-.9,8.54-1.35,12.8-.48-.05-.96-.1-1.43-.15Z"/>
      <path d="M388.53,743.43c-.22-1.57-.45-3.13-.65-4.7-.09-.74.17-1.81-.24-2.19-3.43-3.23.4-5.18.72-7.72.36.02.72.04,1.08.06-.24,4.82-.48,9.64-.72,14.46-.06.03-.13.07-.19.1Z"/>
      <path d="M704.66,326.02c1.1,6.04,2.21,12.09,3.31,18.13-.41.08-.81.15-1.22.23-1.08-6.05-2.16-12.1-3.24-18.15.38-.07.77-.14,1.15-.21Z"/>
      <path d="M742.57,369.45c-.55-5.47-1.1-10.95-1.65-16.42l1.1-.17c.22,1.04.52,2.07.63,3.13.37,3.63.75,7.26.93,10.9.04.79-.68,1.62-1.05,2.45,0,.01.04.11.04.11Z"/>
      <path d="M558.36,756.1c3.56-.98,7.12-1.95,11.22-3.08-2.13,3.47-7.4,5.1-11.22,3.08Z"/>
      <path d="M481.16,595.58c1.88-3.66,3.76-7.33,5.65-10.99-.06,4.55-1.31,8.53-4.64,11.49-.34-.16-.67-.33-1.01-.49Z"/>
      <path d="M450.02,638.44c.39,5.36-.55,7.39-4.15,9.05-.62-3.92,2.08-6.04,4.15-9.05Z"/>
      <path d="M644.4,673.79c2.48-4.83,4.96-9.65,7.45-14.48.31.16.61.31.92.47-2.44,4.85-4.87,9.7-7.31,14.55-.35-.18-.71-.36-1.06-.54Z"/>
      <path d="M587.77,613.8c1.52-3.32,6.48-5.65,12.3-6.3-4.51,2.31-8.4,4.3-12.3,6.3Z"/>
      <path d="M735.67,385.11c.86,4.33,1.71,8.66,2.57,12.99-2.35-4.04-4.45-8.12-2.57-12.99Z"/>
      <path d="M733.43,280.33c2.31-.03,3.13,1.37,3.48,3.8.62,4.23,1.68,8.39,2.57,12.62-3.9-4.72-1.82-11.73-6.05-16.42Z"/>
      <path d="M612.71,696.82c4.33-3.15,8.66-6.29,12.98-9.44.22.29.43.58.65.87-4.33,3.14-8.66,6.29-12.99,9.43-.21-.29-.43-.58-.64-.87Z"/>
      <path d="M676.61,341.35c1.34,4.25,2.68,8.5,4.02,12.75-.47.14-.95.29-1.42.43-1.24-4.28-2.48-8.56-3.71-12.83.37-.12.74-.23,1.11-.35Z"/>
      <path d="M700.25,297.85c-.93-4.65-1.86-9.3-2.79-13.95l.98-.22c1.03,4.63,2.06,9.26,3.09,13.89-.43.09-.85.19-1.28.28Z"/>
      <path d="M672.91,461.79c.47-4.31.94-8.62,1.41-12.93.34.02.69.05,1.03.07-.29,4.35-.57,8.71-.86,13.06-.53-.07-1.06-.13-1.58-.2Z"/>
      <path d="M620.19,379.3c1.59-3.73,3.19-7.46,4.94-11.56-.14,4.71-1.4,8.59-4.94,11.56Z"/>
      <path d="M718.99,408.92c.01,3.73.03,7.45.04,11.18-.28,0-.57,0-.85.01-.5-3.71-1.01-7.43-.66-11.16.49,0,.98-.02,1.47-.03Z"/>
      <path d="M445.18,783.48c-4.23-.26-8.47-.52-13.49-.83,5.22-2.48,9.38-.73,13.49.83Z"/>
      <path d="M668.21,487.32c-1.02,2.89-2.04,5.78-3.06,8.66-.5-.18-1-.36-1.5-.54,1.17-2.83,2.34-5.65,3.5-8.48.35.12.7.24,1.06.36Z"/>
      <path d="M652.04,475.27c-1.34,3.32-2.68,6.63-4.02,9.95-.33-.14-.66-.27-1-.41,1.33-3.32,2.67-6.64,4-9.96.34.14.68.28,1.01.42Z"/>
      <path d="M486.33,599.11c1.07-1.81,2.14-3.63,3.22-5.44.36.19.72.38,1.08.57-.99,1.87-1.97,3.73-2.96,5.6-.45-.25-.89-.49-1.34-.74Z"/>
      <path d="M559.25,496.69c.44-2.11.89-4.22,1.33-6.32.37.06.74.11,1.11.17-.27,2.11-.55,4.23-.82,6.34-.54-.06-1.08-.13-1.62-.19Z"/>
    </g>
    <circle class="cls-2" cx="673.83" cy="820.75" r="66.29"/>
  </g>
</svg>