<svg width="816" height="350" viewBox="0 0 816 350" fill="none" xmlns="http://www.w3.org/2000/svg">
<g clip-path="url(#clip0_1586_1014)">
<path d="M694.672 241.135C691.186 127.076 688.336 124.244 574.277 120.741C688.336 117.255 691.168 114.405 694.672 0.346436C698.157 114.405 701.007 117.237 815.066 120.741C701.007 124.244 698.175 127.041 694.672 241.135Z" fill="url(#paint0_linear_1586_1014)"/>
<path d="M53.956 239.038L29.7262 198.06H13.6687V239.038H0.386719V138.821H33.2289C40.9171 138.821 47.4117 140.115 52.7146 142.703C58.0192 145.29 61.9848 148.789 64.6114 153.199C67.2397 157.608 68.5522 162.641 68.5522 168.296C68.5522 175.197 66.5339 181.285 62.4955 186.556C58.4572 191.828 52.3989 195.328 44.3223 197.054L69.8663 239.038H53.956ZM13.6687 187.564H33.2289C40.4294 187.564 45.8298 185.813 49.4318 182.316C53.0321 178.817 54.8321 174.143 54.8321 168.296C54.8321 162.353 53.0551 157.751 49.5045 154.493C45.9521 151.233 40.527 149.603 33.2289 149.603H13.6687V187.564Z" fill="black"/>
<path d="M124.021 240.332C116.528 240.332 109.741 238.655 103.658 235.299C97.5762 231.945 92.809 227.176 89.3542 220.993C85.8993 214.81 84.1719 207.646 84.1719 199.498C84.1719 191.446 85.9472 184.328 89.4996 178.146C93.0519 171.963 97.8919 167.218 104.023 163.911C110.154 160.604 117.014 158.95 124.605 158.95C132.195 158.95 139.055 160.604 145.186 163.911C151.316 167.218 156.157 171.939 159.71 178.074C163.262 184.208 165.038 191.35 165.038 199.498C165.038 207.646 163.213 214.81 159.564 220.993C155.915 227.176 150.975 231.945 144.748 235.299C138.52 238.655 131.612 240.332 124.021 240.332ZM124.021 228.83C128.788 228.83 133.265 227.728 137.45 225.523C141.634 223.318 145.016 220.011 147.595 215.602C150.174 211.192 151.463 205.824 151.463 199.498C151.463 193.172 150.198 187.803 147.668 183.394C145.137 178.984 141.829 175.702 137.741 173.544C133.655 171.388 129.227 170.309 124.459 170.309C119.593 170.309 115.141 171.388 111.103 173.544C107.065 175.702 103.828 178.984 101.396 183.394C98.9631 187.803 97.7464 193.172 97.7464 199.498C97.7464 205.92 98.9382 211.335 101.324 215.745C103.707 220.154 106.894 223.437 110.883 225.594C114.873 227.752 119.252 228.83 124.021 228.83Z" fill="black"/>
<path d="M177.59 199.498C177.59 191.35 179.245 184.232 182.552 178.146C185.862 172.059 190.46 167.337 196.347 163.983C202.235 160.627 208.972 158.95 216.563 158.95C226.392 158.95 234.493 161.299 240.867 165.995C247.241 170.693 251.45 177.211 253.493 185.55H239.188C237.826 180.758 235.174 176.972 231.234 174.19C227.293 171.411 222.401 170.022 216.563 170.022C208.972 170.022 202.843 172.585 198.172 177.714C193.5 182.842 191.164 190.104 191.164 199.498C191.164 208.987 193.5 216.32 198.172 221.496C202.843 226.672 208.972 229.261 216.563 229.261C222.401 229.261 227.268 227.92 231.161 225.235C235.052 222.551 237.728 218.717 239.188 213.732H253.493C251.353 221.784 247.071 228.231 240.647 233.072C234.225 237.913 226.197 240.332 216.563 240.332C208.972 240.332 202.235 238.655 196.347 235.299C190.46 231.945 185.862 227.2 182.552 221.064C179.245 214.931 177.59 207.742 177.59 199.498Z" fill="black"/>
<path d="M315.822 239.038L284.438 204.243V239.038H271.156V132.638H284.438V195.184L315.237 160.244H333.776L296.117 199.498L333.921 239.038H315.822Z" fill="black"/>
<path d="M353.041 124.586L351.29 153.198H342.093L340.195 124.586H353.041Z" fill="#FFC600" stroke="#FFE979" stroke-width="0.513984" stroke-miterlimit="2" stroke-linejoin="round"/>
<path d="M401.797 240.046C395.082 240.046 389.074 238.87 383.769 236.522C378.466 234.174 374.305 230.914 371.289 226.744C368.272 222.576 366.715 217.758 366.617 212.295H380.777C381.263 216.991 383.233 220.946 386.688 224.157C390.143 227.368 395.178 228.973 401.797 228.973C408.121 228.973 413.108 227.417 416.758 224.3C420.406 221.185 422.231 217.183 422.231 212.295C422.231 208.46 421.16 205.345 419.02 202.948C416.879 200.551 414.203 198.731 410.993 197.485C407.781 196.238 403.45 194.896 398.001 193.458C391.287 191.734 385.91 190.008 381.871 188.282C377.833 186.556 374.378 183.848 371.509 180.158C368.637 176.469 367.202 171.507 367.202 165.277C367.202 159.813 368.612 154.972 371.434 150.754C374.258 146.537 378.223 143.277 383.331 140.976C388.44 138.676 394.304 137.526 400.921 137.526C410.457 137.526 418.266 139.874 424.349 144.572C430.431 149.27 433.86 155.499 434.639 163.263H420.041C419.555 159.43 417.512 156.05 413.912 153.127C410.312 150.202 405.542 148.742 399.606 148.742C394.059 148.742 389.535 150.155 386.032 152.984C382.527 155.81 380.777 159.766 380.777 164.846C380.777 168.488 381.823 171.46 383.914 173.759C386.007 176.06 388.586 177.81 391.651 179.009C394.717 180.207 399.023 181.572 404.569 183.106C411.283 184.928 416.686 186.725 420.772 188.499C424.86 190.272 428.363 193.004 431.282 196.694C434.201 200.384 435.661 205.392 435.661 211.72C435.661 216.608 434.346 221.21 431.72 225.523C429.091 229.836 425.2 233.336 420.041 236.019C414.884 238.702 408.802 240.046 401.797 240.046Z" fill="black"/>
<path d="M471.424 171.028V217.471C471.424 221.306 472.252 224.013 473.907 225.595C475.56 227.176 478.431 227.967 482.519 227.967H492.298V239.038H480.329C472.933 239.038 467.385 237.361 463.688 234.006C459.99 230.65 458.142 225.139 458.142 217.471V171.028H447.777V160.244H458.142V140.402H471.424V160.244H492.298V171.028H471.424Z" fill="black"/>
<path d="M503.391 199.354C503.391 191.302 505.045 184.232 508.353 178.146C511.662 172.059 516.211 167.337 521.997 163.983C527.796 160.627 534.234 158.95 541.346 158.95C548.351 158.95 554.434 160.436 559.595 163.408C564.739 166.38 568.587 170.118 571.123 174.622V160.244H584.549V239.038H571.123V224.372C568.499 228.973 564.579 232.783 559.365 235.804C554.168 238.823 548.103 240.332 541.204 240.332C534.092 240.332 527.672 238.608 521.926 235.156C516.187 231.706 511.662 226.865 508.353 220.635C505.045 214.403 503.391 207.31 503.391 199.354ZM571.123 199.498C571.123 193.554 569.9 188.378 567.47 183.969C565.04 179.559 561.759 176.18 557.609 173.832C553.477 171.483 548.936 170.309 543.971 170.309C539.005 170.309 534.482 171.46 530.403 173.759C526.306 176.06 523.043 179.416 520.613 183.825C518.182 188.235 516.965 193.411 516.965 199.354C516.965 205.392 518.182 210.64 520.613 215.098C523.043 219.555 526.306 222.958 530.403 225.306C534.482 227.656 539.005 228.83 543.971 228.83C548.936 228.83 553.477 227.656 557.609 225.306C561.759 222.958 565.04 219.555 567.47 215.098C569.9 210.64 571.123 205.441 571.123 199.498Z" fill="black"/>
<path d="M620.303 173.041C622.644 168.536 625.978 165.036 630.306 162.545C634.633 160.052 639.919 158.806 646.144 158.806V172.321H642.65C627.752 172.321 620.303 180.279 620.303 196.191V239.038H607.02V160.244H620.303V173.041Z" fill="black"/>
<path d="M67.2091 258.685V324.193H60.4638V271.882L36.755 324.193H31.8372L8.12836 272.072V324.193H1.38281V258.685H8.51587L34.246 315.459L59.9819 258.685H67.2091Z" fill="black"/>
<path d="M79.4492 298.182C79.4492 292.863 80.5237 288.193 82.678 284.178C84.8323 280.157 87.8175 277.053 91.6388 274.871C95.4657 272.689 99.7852 271.598 104.603 271.598C109.615 271.598 113.935 272.738 117.568 275.013C121.196 277.293 123.815 280.206 125.421 283.747V272.356H132.167V324.193H125.421V312.704C123.749 316.25 121.102 319.174 117.468 321.487C113.841 323.794 109.521 324.951 104.504 324.951C99.7522 324.951 95.4657 323.844 91.6388 321.629C87.8175 319.414 84.8323 316.277 82.678 312.229C80.5237 308.181 79.4492 303.495 79.4492 298.182ZM125.421 298.274C125.421 294.096 124.552 290.424 122.818 287.26C121.085 284.096 118.72 281.657 115.735 279.95C112.745 278.242 109.455 277.386 105.855 277.386C102.128 277.386 98.7884 278.21 95.8311 279.857C92.8792 281.499 90.5478 283.889 88.8476 287.025C87.1418 290.157 86.2889 293.877 86.2889 298.182C86.2889 302.42 87.1418 306.136 88.8476 309.332C90.5478 312.529 92.8792 314.968 95.8311 316.642C98.7884 318.323 102.128 319.157 105.855 319.157C109.455 319.157 112.745 318.306 115.735 316.599C118.72 314.886 121.085 312.453 122.818 309.289C124.552 306.125 125.421 302.453 125.421 298.274Z" fill="black"/>
<path d="M172.264 271.407C178.561 271.407 183.7 273.322 187.682 277.151C191.664 280.981 193.658 286.535 193.658 293.812V324.193H187.006V294.57C187.006 288.94 185.578 284.636 182.72 281.658C179.857 278.684 175.958 277.201 171.007 277.201C165.934 277.201 161.885 278.777 158.867 281.947C155.843 285.111 154.337 289.759 154.337 295.901V324.193H147.586V272.356H154.337V281.183C156.004 278.019 158.413 275.602 161.564 273.922C164.71 272.247 168.276 271.407 172.264 271.407Z" fill="black"/>
<path d="M205.508 298.182C205.508 292.863 206.588 288.193 208.737 284.178C210.891 280.157 213.876 277.053 217.703 274.871C221.524 272.689 225.844 271.598 230.662 271.598C235.674 271.598 239.999 272.738 243.627 275.013C247.26 277.293 249.874 280.206 251.48 283.747V272.356H258.225V324.193H251.48V312.704C249.813 316.25 247.16 319.174 243.533 321.487C239.9 323.794 235.58 324.951 230.568 324.951C225.811 324.951 221.524 323.844 217.703 321.629C213.876 319.414 210.891 316.277 208.737 312.229C206.588 308.181 205.508 303.495 205.508 298.182ZM251.48 298.274C251.48 294.096 250.616 290.424 248.882 287.26C247.143 284.096 244.784 281.657 241.794 279.95C238.809 278.242 235.513 277.386 231.919 277.386C228.192 277.386 224.852 278.21 221.895 279.857C218.938 281.499 216.612 283.889 214.906 287.025C213.206 290.157 212.353 293.877 212.353 298.182C212.353 302.42 213.206 306.136 214.906 309.332C216.612 312.529 218.938 314.968 221.895 316.642C224.852 318.323 228.192 319.157 231.919 319.157C235.513 319.157 238.809 318.306 241.794 316.599C244.784 314.886 247.143 312.453 248.882 309.289C250.616 306.125 251.48 302.453 251.48 298.274Z" fill="black"/>
<path d="M295.717 271.598C300.662 271.598 304.971 272.738 308.632 275.013C312.292 277.293 314.928 280.174 316.534 283.654V272.356H323.28V325.518C323.28 330.265 322.239 334.476 320.151 338.147C318.063 341.819 315.155 344.65 311.428 346.641C307.701 348.638 303.459 349.636 298.707 349.636C291.956 349.636 286.352 348.054 281.888 344.89C277.424 341.721 274.644 337.416 273.547 331.977H280.199C281.356 335.583 283.56 338.464 286.8 340.613C290.046 342.768 294.016 343.843 298.707 343.843C302.113 343.843 305.165 343.134 307.862 341.71C310.559 340.281 312.68 338.18 314.219 335.392C315.765 332.61 316.534 329.321 316.534 325.518V312.704C314.862 316.25 312.215 319.174 308.582 321.487C304.954 323.794 300.662 324.951 295.717 324.951C290.899 324.951 286.579 323.844 282.757 321.629C278.931 319.414 275.945 316.277 273.791 312.229C271.637 308.181 270.562 303.495 270.562 298.182C270.562 292.863 271.637 288.193 273.791 284.178C275.945 280.157 278.931 277.053 282.757 274.871C286.579 272.689 290.899 271.598 295.717 271.598ZM316.534 298.274C316.534 294.096 315.665 290.424 313.931 287.26C312.198 284.096 309.839 281.657 306.848 279.95C303.863 278.242 300.568 277.386 296.968 277.386C293.247 277.386 289.902 278.21 286.95 279.857C283.992 281.499 281.661 283.889 279.961 287.025C278.255 290.157 277.408 293.877 277.408 298.182C277.408 302.42 278.255 306.136 279.961 309.332C281.661 312.529 283.992 314.968 286.95 316.642C289.902 318.323 293.247 319.157 296.968 319.157C300.568 319.157 303.863 318.306 306.848 316.599C309.839 314.886 312.198 312.453 313.931 309.289C315.665 306.125 316.534 302.453 316.534 298.274Z" fill="black"/>
<path d="M386.317 295.618C386.317 297.893 386.251 299.633 386.123 300.838H342.461C342.655 304.761 343.618 308.116 345.352 310.898C347.09 313.686 349.372 315.791 352.197 317.215C355.027 318.639 358.106 319.348 361.451 319.348C365.821 319.348 369.498 318.306 372.483 316.217C375.474 314.128 377.451 311.313 378.409 307.767H385.542C384.257 312.829 381.51 316.959 377.301 320.156C373.092 323.353 367.809 324.951 361.451 324.951C356.5 324.951 352.069 323.86 348.148 321.678C344.227 319.49 341.159 316.392 338.944 312.371C336.729 308.35 335.621 303.653 335.621 298.274C335.621 292.895 336.712 288.177 338.894 284.129C341.082 280.075 344.133 276.977 348.054 274.822C351.97 272.672 356.439 271.598 361.451 271.598C366.463 271.598 370.844 272.672 374.604 274.822C378.365 276.977 381.256 279.874 383.277 283.512C385.304 287.151 386.317 291.182 386.317 295.618ZM379.472 295.427C379.539 291.564 378.747 288.275 377.113 285.553C375.474 282.83 373.236 280.774 370.412 279.383C367.587 277.991 364.502 277.293 361.157 277.293C356.151 277.293 351.876 278.875 348.342 282.039C344.809 285.203 342.848 289.666 342.461 295.427H379.472Z" fill="black"/>
<path d="M461.3 271.407C467.464 271.407 472.492 273.322 476.38 277.151C480.268 280.981 482.212 286.535 482.212 293.812V324.193H475.561V294.57C475.561 288.94 474.181 284.636 471.418 281.658C468.654 278.684 464.894 277.201 460.142 277.201C455.197 277.201 451.243 278.81 448.285 282.039C445.333 285.269 443.855 289.95 443.855 296.092V324.193H437.203V294.57C437.203 288.94 435.824 284.636 433.061 281.658C430.297 278.684 426.504 277.201 421.685 277.201C416.74 277.201 412.786 278.81 409.834 282.039C406.876 285.269 405.398 289.95 405.398 296.092V324.193H398.652V272.356H405.398V281.281C407.07 278.052 409.446 275.602 412.531 273.922C415.616 272.247 419.055 271.407 422.843 271.407C427.406 271.407 431.405 272.482 434.844 274.637C438.278 276.786 440.77 279.95 442.31 284.129C443.727 280.015 446.153 276.868 449.587 274.68C453.026 272.498 456.93 271.407 461.3 271.407Z" fill="black"/>
<path d="M544.759 295.618C544.759 297.893 544.697 299.633 544.565 300.838H500.907C501.101 304.761 502.065 308.116 503.799 310.898C505.532 313.686 507.813 315.791 510.643 317.215C513.468 318.639 516.553 319.348 519.892 319.348C524.262 319.348 527.939 318.306 530.93 316.217C533.915 314.128 535.892 311.313 536.855 307.767H543.989C542.704 312.829 539.957 316.959 535.748 320.156C531.539 323.353 526.256 324.951 519.892 324.951C514.947 324.951 510.516 323.86 506.595 321.678C502.674 319.49 499.606 316.392 497.391 312.371C495.176 308.35 494.062 303.653 494.062 298.274C494.062 292.895 495.159 288.177 497.341 284.129C499.529 280.075 502.58 276.977 506.496 274.822C510.417 272.672 514.88 271.598 519.892 271.598C524.904 271.598 529.29 272.672 533.051 274.822C536.811 276.977 539.702 279.874 541.724 283.512C543.75 287.151 544.759 291.182 544.759 295.618ZM537.919 295.427C537.98 291.564 537.194 288.275 535.554 285.553C533.915 282.83 531.683 280.774 528.859 279.383C526.029 277.991 522.944 277.293 519.604 277.293C514.592 277.293 510.322 278.875 506.789 282.039C503.25 285.203 501.295 289.666 500.907 295.427H537.919Z" fill="black"/>
<path d="M581.771 271.407C588.067 271.407 593.207 273.322 597.189 277.151C601.171 280.981 603.164 286.535 603.164 293.812V324.193H596.513V294.57C596.513 288.94 595.084 284.636 592.226 281.658C589.369 278.684 585.464 277.201 580.518 277.201C575.44 277.201 571.392 278.777 568.374 281.947C565.355 285.111 563.843 289.759 563.843 295.901V324.193H557.098V272.356H563.843V281.183C565.516 278.019 567.925 275.602 571.071 273.922C574.222 272.247 577.783 271.407 581.771 271.407Z" fill="black"/>
<path d="M626.87 277.959V310.14C626.87 313.304 627.479 315.491 628.703 316.692C629.922 317.892 632.075 318.497 635.16 318.497H641.325V324.193H634.097C629.345 324.193 625.812 323.102 623.497 320.914C621.182 318.732 620.03 315.142 620.03 310.14V277.959H612.703V272.356H620.03V259.351H626.87V272.356H641.325V277.959H626.87Z" fill="black"/>
</g>
<defs>
<linearGradient id="paint0_linear_1586_1014" x1="668.015" y1="18.4922" x2="781.083" y2="241.135" gradientUnits="userSpaceOnUse">
<stop stop-color="#F9F295"/>
<stop offset="0.37" stop-color="#E0AA3E"/>
<stop offset="0.43" stop-color="#FAD398"/>
<stop offset="0.53" stop-color="#DDB373"/>
<stop offset="0.64" stop-color="#C39652"/>
<stop offset="1" stop-color="#B88A44"/>
</linearGradient>
<clipPath id="clip0_1586_1014">
<rect width="815.294" height="350" fill="white"/>
</clipPath>
</defs>
</svg>
